DBRep_DrawableShape

CASCADE Topology V3, (c) Open Cascade
Locations 0
Curve2ds 60
1 6.2584906381809855 -9.6999999999998892 1 0 
1 -0.024694668998600733 0.35351066175781559 1 0 
1 6.2831853071795862 0 0 1 
1 6.591949208711867e-17 0 0 1 
1 9.4247779607693793 0.30000000000010019 -1 0 
1 0 -9.6999999999998892 1 0 
1 0 0.35351066175781559 1 1.0115550872721381e-13 
1 0.024694668998598956 -9.6999999999998892 0 -1 
7 0 0  1 2 2  0.024694668998630931 -12.700000000000031  6.2584906381809553 -12.700000000000029 
 0 2 1 2
7 0 0  1 2 2  0.024694668998630931 0.35355339059322932  6.2584906381809562 0.35355339059322932 
 0 2 1 2
1 6.2584906381809837 -12.699999999999886 1.7763568393999801e-15 1 
7 0 0  3 69 67  0.024694668998628558 0.35351066175821316  0.024571539109381046 0.34985163643125478  0.024325230409031211 0.34253625856693243  0.023955620685779905 0.33157121021538072  0.023585864382499187 0.32061418038547285  0.02321596159237873 0.3096651691519513  0.022845912408916404 0.29872417658756101  0.022475716926164759 0.28779120277101455  0.0221053752385563 0.27686624778038937  0.021734887440853827 0.2659493116910443  0.021364253628267955 0.25504039458035971  0.020993473895660749 0.24413949649579156  0.02062254833807747 0.23324661747646508  0.020251477050968705 0.222361757561438  0.019880260130115728 0.21148491678846415  0.019508897671749632 0.20061609518945428  0.019137389772505044 0.18975529279273992  0.01876573652935112 0.17890250962525955  0.018393938039671036 0.16805774571326854  0.018021994400948115 0.15722100107618239  0.017649905710792488 0.14639227572711833  0.017277672067262401 0.13557156967863643  0.016905293568611656 0.12475888294177899  0.016532770314112495 0.11395421552402495  0.016160102404413096 0.10315756742770617  0.01578728994028188 0.09236893865517147  0.015414333023099705 0.081588329202846449  0.015041231753801843 0.070815739082158241  0.014667986231313299 0.060051168352137536  0.014294596555352692 0.049294617062240878  0.013921062825589943 0.038546085265094773  0.013547385143299163 0.027805573000444308  0.013173563619010398 0.017073080228103055  0.012799598362840246 0.0063486069129311878  0.012425489485512283 -0.0043678469839429825  0.012051237097984965 -0.015076281502261228  0.011676841298767655 -0.025776696602418093  0.011302302186755028 -0.036469092246427949  0.010927619861367853 -0.047153468399321621  0.01055279442170263 -0.057829825021670014  0.010177825976257257 -0.068498162155579689  0.0098027146349297916 -0.07915847985433308  0.0094274605076390596 -0.089810778168767924  0.0090520637050687334 -0.10045505715900734  0.0086765243358185411 -0.11109131683468741  0.0083008425081880222 -0.1217195571930061  0.0079250183310694989 -0.13233977823665588  0.0075490519134882609 -0.14295197996845441  0.0071729433659889902 -0.1535561623967914  0.0067966928000597919 -0.16415232553345371  0.006420300327415523 -0.17474046939186849  0.0060437660602376082 -0.18532059398622661  0.00566709011081075 -0.19589269933807146  0.0052902725915744469 -0.20645678547554208  0.0049133136153974048 -0.21701285242759435  0.0045362132954975308 -0.227560900224618  0.0041589717455386439 -0.2381009289015657  0.0037815890796469658 -0.24863293849900686  0.0034040654123297398 -0.25915692905921339  0.003026400858402088 -0.26967290062388327  0.0026485955333172442 -0.28018085324679304  0.002270649550246273 -0.29068078701090927  0.0018925630301527259 -0.30117270199669544  0.0015143360670741804 -0.3116565982878593  0.0011359688572223855 -0.32213247596834749  0.00075746121761407733 -0.33260033511637088  0.00037881438294247525 -0.34306017581242354  0.00012628766017277034 -0.35002805736368459  0 -0.3535106617581466 
 0 4 0.015151515151515152 1 0.030303030303030304 1 0.045454545454545456 1 0.060606060606060608 1 0.07575757575757576 1 0.090909090909090912 1 0.10606060606060606 1 0.12121212121212122 1 0.13636363636363635 1 0.15151515151515152 1 0.16666666666666669 1 0.18181818181818182 1 0.19696969696969696 1 0.21212121212121213 1 0.22727272727272729 1 0.24242424242424243 1 0.25757575757575757 1 0.27272727272727271 1 0.2878787878787879 1 0.30303030303030304 1 0.31818181818181818 1 0.33333333333333337 1 0.34848484848484851 1 0.36363636363636365 1 0.37878787878787878 1 0.39393939393939392 1 0.40909090909090912 1 0.42424242424242425 1 0.43939393939393939 1 0.45454545454545459 1 0.46969696969696972 1 0.48484848484848486 1 0.5 1 0.51515151515151514 1 0.53030303030303028 1 0.54545454545454541 1 0.56060606060606066 1 0.5757575757575758 1 0.59090909090909094 1 0.60606060606060608 1 0.62121212121212122 1 0.63636363636363635 1 0.65151515151515149 1 0.66666666666666674 1 0.68181818181818188 1 0.69696969696969702 1 0.71212121212121215 1 0.72727272727272729 1 0.74242424242424243 1 0.75757575757575757 1 0.77272727272727271 1 0.78787878787878785 1 0.80303030303030309 1 0.81818181818181823 1 0.83333333333333337 1 0.84848484848484851 1 0.86363636363636365 1 0.87878787878787878 1 0.89393939393939392 1 0.90909090909090917 1 0.92424242424242431 1 0.93939393939393945 1 0.95454545454545459 1 0.96969696969696972 1 0.98484848484848486 1 1 4
7 0 0  3 69 67  -0.02469466899860695 0.35351066175844836  -0.024571870172809165 0.34986147458091649  -0.024326214160482702 0.34256547035528745  -0.023957555073291101 0.33162857507576365  -0.02358872093078802 0.32069879152599401  -0.023219711746714972 0.30977612037604685  -0.022850527535033693 0.29886056229524272  -0.022481168310077869 0.28795211795622971  -0.022111634086450352 0.27705078803158734  -0.021741924878994668 0.26615657319275737  -0.021372040702862492 0.25526947411241535  -0.021001981573069956 0.24438949144792937  -0.020631747504781899 0.23351662585229102  -0.020261338513449891 0.22265087797879715  -0.019890754614780723 0.21179224848020523  -0.019519995824729585 0.200940738007018  -0.01914906215951636 0.19009634720845506  -0.018777953635609804 0.17925907673300151  -0.018406670269763965 0.16842892722962199  -0.018035212078882912 0.1576058993411239  -0.017663579080029825 0.14678999370477908  -0.017291771290563269 0.13598121095847512  -0.016919788728067896 0.12517955173855819  -0.016547631410474009 0.11438501668367528  -0.01617529935605902 0.1035976064361652  -0.015802792583370022 0.092817321636981448  -0.015430111111164213 0.082044162926570324  -0.015057254958666187 0.07127813094511673  -0.014684224145983724 0.06051922633350551  -0.014311018693397203 0.049767449731972419  -0.013937638621489232 0.039022801779255378  -0.0135640839510649 0.028285283117015687  -0.013190354702909614 0.017554894413073233  -0.012816450898101989 0.0068316363322537795  -0.012442372557979652 -0.0038844904605883301  -0.012068119704155092 -0.014593485301623077  -0.011693692358928648 -0.025295347570753524  -0.01131909054486779 -0.035990076648471127  -0.010944314284808644 -0.046677671915441157  -0.010569363601881612 -0.057358132755072892  -0.010194238519194199 -0.068031458524350913  -0.0098189390600882144 -0.078697648577838494  -0.0094434652482114773 -0.089356702271547669  -0.0090678171073895353 -0.10000861896214273  -0.0086919946623814134 -0.11065339800552568  -0.0083159979384096697 -0.12129103875789647  -0.0079398269609201808 -0.13192154057609123  -0.0075634817556380334 -0.14254490281835983  -0.0071869623486748102 -0.15316112483903987  -0.0068102687664964509 -0.16377020599060102  -0.0064334010358166752 -0.17437214562715475  -0.0060563591836610689 -0.18496694310218345  -0.0056791432372173068 -0.19555459777568002  -0.0053017532238586176 -0.20613510901340126  -0.0049241891712582479 -0.21670847618075423  -0.0045464511073612102 -0.2272746986439288  -0.0041685390603987153 -0.2378337757708682  -0.0037904530588747771 -0.24838570693177636  -0.0034121931316052944 -0.25893049149768155  -0.0030337593075751264 -0.26946812883903803  -0.0026551516164440925 -0.27999861833230832  -0.0022763700857972272 -0.29052195936902819  -0.0018974147508704169 -0.30103815133925804  -0.0015182856199003278 -0.3115471936345422  -0.0011389828031590076 -0.32204908564638668  -0.00075950603163069878 -0.33254382676305572  -0.00037985645355776971 -0.34303141637388068  -0.00012663877065024722 -0.3500183747040011  0 -0.35351066174811274 
 0 4 0.015151515151515152 1 0.030303030303030304 1 0.045454545454545456 1 0.060606060606060608 1 0.07575757575757576 1 0.090909090909090912 1 0.10606060606060606 1 0.12121212121212122 1 0.13636363636363635 1 0.15151515151515152 1 0.16666666666666669 1 0.18181818181818182 1 0.19696969696969696 1 0.21212121212121213 1 0.22727272727272729 1 0.24242424242424243 1 0.25757575757575757 1 0.27272727272727271 1 0.2878787878787879 1 0.30303030303030304 1 0.31818181818181818 1 0.33333333333333337 1 0.34848484848484851 1 0.36363636363636365 1 0.37878787878787878 1 0.39393939393939392 1 0.40909090909090912 1 0.42424242424242425 1 0.43939393939393939 1 0.45454545454545459 1 0.46969696969696972 1 0.48484848484848486 1 0.5 1 0.51515151515151514 1 0.53030303030303028 1 0.54545454545454541 1 0.56060606060606066 1 0.5757575757575758 1 0.59090909090909094 1 0.60606060606060608 1 0.62121212121212122 1 0.63636363636363635 1 0.65151515151515149 1 0.66666666666666674 1 0.68181818181818188 1 0.69696969696969702 1 0.71212121212121215 1 0.72727272727272729 1 0.74242424242424243 1 0.75757575757575757 1 0.77272727272727271 1 0.78787878787878785 1 0.80303030303030309 1 0.81818181818181823 1 0.83333333333333337 1 0.84848484848484851 1 0.86363636363636365 1 0.87878787878787878 1 0.89393939393939392 1 0.90909090909090917 1 0.92424242424242431 1 0.93939393939393945 1 0.95454545454545459 1 0.96969696969696972 1 0.98484848484848486 1 1 4
1 0 -0.35355339027617838 1 0 
1 6.2831853071795862 0 0 1 
1 0 0 0 1 
7 0 0  3 69 67  6.2584906381809571 0.35355339059372765  6.2586137680851035 0.34989436482398584  6.2588600768152611 0.34257898607476506  6.2592296865832644 0.33161393639786579  6.2595994429313251 0.32065690524460688  6.2599693457662653 0.30970789268971355  6.2603393949945776 0.29876689880593488  6.2607095905222154 0.28783392367197935  6.2610799322547459 0.27690896736591181  6.261450420097403 0.26599202996312132  6.261821053954975 0.25508311154094415  6.2621918337326079 0.24418221214686783  6.2625627593352435 0.23328933182000927  6.2629338306674445 0.22240447059943211  6.2633050476334207 0.21152762852289742  6.2636764101369415 0.2006588056223054  6.2640479180813786 0.18979800192599672  6.2644195713697588 0.17894521746088352  6.2647913699046951 0.16810045225326481  6.2651633135887117 0.15726370632247882  6.2655354023241916 0.14643497968172708  6.2659076360130825 0.13561427234351064  6.2662800145571262 0.1248015843188966  6.2666525378570492 0.11399691561537829  6.2670252058122102 0.10320026623524144  6.2673980183218321 0.092411636180890863  6.2677709752845434 0.081631025448727246  6.2681440765994019 0.0708584340501867  6.2685173221674839 0.060093862044285497  6.2688907118890711 0.049337309480477418  6.2692642456644938 0.038588776411377576  6.2696379233924766 0.027848262876745987  6.2700117449624919 0.017115768836368832  6.2703857102644198 0.0063912942551415377  6.2707598191875409 -0.0043251609058128178  6.2711340716208941 -0.015033596686228327  6.2715084674659733 -0.025734013046501813  6.2718830066238809 -0.03642640994863916  6.2722576889951913 -0.047110787357700738  6.272632514480815 -0.057787145234220127  6.2730074829722531 -0.068455483620344731  6.2733825943596049 -0.079115802569334079  6.2737578485329513 -0.089768102132056229  6.2741332453816065 -0.10041238236861821  6.2745087847969803 -0.11104864328863395  6.2748844666707617 -0.12167688488932304  6.2752602908940682 -0.13229710717331838  6.2756362573578777 -0.14290931014343167  6.2760123659516367 -0.15351349380810086  6.2763886165638532 -0.16410965817918441  6.2767650090828093 -0.17469780327018938  6.277141543396314 -0.18527792909539229  6.2775182193920918 -0.19585003567624865  6.2778950369577267 -0.20641412304053688  6.2782719959803623 -0.21697019121698435  6.27864909634682 -0.22751824023557041  6.2790263379434155 -0.23805827013147934  6.279403720655921 -0.24859028094657518  6.2797812443697936 -0.2591142727240382  6.2801589089700043 -0.26963024550702797  6.2805367143415296 -0.28013819934905332  6.2809146603699801 -0.29063813432853874  6.2812927469404416 -0.30113005052210834  6.2816709739376666 -0.3116139480093324  6.2820493412459868 -0.32208982687027193  6.2824278487490535 -0.33255768718047807  6.2828064963302115 -0.34301752901762506  6.2830590213582527 -0.34998541131370992  6.2831853071795871 -0.35346801607614325 
 0 4 0.015151515151515152 1 0.030303030303030304 1 0.045454545454545456 1 0.060606060606060608 1 0.07575757575757576 1 0.090909090909090912 1 0.10606060606060606 1 0.12121212121212122 1 0.13636363636363635 1 0.15151515151515152 1 0.16666666666666669 1 0.18181818181818182 1 0.19696969696969696 1 0.21212121212121213 1 0.22727272727272729 1 0.24242424242424243 1 0.25757575757575757 1 0.27272727272727271 1 0.2878787878787879 1 0.30303030303030304 1 0.31818181818181818 1 0.33333333333333337 1 0.34848484848484851 1 0.36363636363636365 1 0.37878787878787878 1 0.39393939393939392 1 0.40909090909090912 1 0.42424242424242425 1 0.43939393939393939 1 0.45454545454545459 1 0.46969696969696972 1 0.48484848484848486 1 0.5 1 0.51515151515151514 1 0.53030303030303028 1 0.54545454545454541 1 0.56060606060606066 1 0.5757575757575758 1 0.59090909090909094 1 0.60606060606060608 1 0.62121212121212122 1 0.63636363636363635 1 0.65151515151515149 1 0.66666666666666674 1 0.68181818181818188 1 0.69696969696969702 1 0.71212121212121215 1 0.72727272727272729 1 0.74242424242424243 1 0.75757575757575757 1 0.77272727272727271 1 0.78787878787878785 1 0.80303030303030309 1 0.81818181818181823 1 0.83333333333333337 1 0.84848484848484851 1 0.86363636363636365 1 0.87878787878787878 1 0.89393939393939392 1 0.90909090909090917 1 0.92424242424242431 1 0.93939393939393945 1 0.95454545454545459 1 0.96969696969696972 1 0.98484848484848486 1 1 4
7 0 0  3 69 67  0 -0.35346801607614353  0.00012628582133089594 -0.34998541131376504  0.00037881084936941534 -0.34301752901778554  0.00075745843052121842 -0.33255768718078765  0.001135965933581673 -0.32208982687074383  0.0015143332418947608 -0.31161394800993059  0.0018925602391171026 -0.3011300505228498  0.0022706468095732291 -0.29063813432941271  0.0026485928380211021 -0.28013819935004436  0.0030263982095402042 -0.26963024550813486  0.0034040628097455894 -0.25911427272529602  0.0037815865236137114 -0.2485902809479332  0.0041589692361165831 -0.23805827013298356  0.0045362108327067219 -0.22751824023717637  0.0049133111991599421 -0.21697019121870312  0.0052902702217965114 -0.20641412304234083  0.0056670877874260839 -0.19585003567814738  0.006043763783199374 -0.18527792909736249  0.0064202980967014156 -0.17469780327224033  0.0067966906156540219 -0.16410965818131812  0.0071729412278696003 -0.15351349381030044  0.007549049821626852 -0.14290931014571759  0.0079250162854327399 -0.13229710717566995  0.0083008405087383608 -0.12167688489174108  0.0086765223825207016 -0.11104864329111981  0.0090520617978882001 -0.10041238237114962  0.0094274586465443733 -0.089768102134630948  0.0098027128198889812 -0.079115802571939661  0.010177824207239006 -0.068455483622959015  0.010552792698675262 -0.057787145236854832  0.010927618184298993 -0.047110787360331433  0.011302300555612099 -0.036426409951290761  0.01167683971351785 -0.025734013049173211  0.01205123555859533 -0.015033596688913272  0.012425487991948536 -0.0043251609085066776  0.0127995969150696 0.0063912942524437851  0.013173562216999279 0.017115768833672492  0.013547383787014589 0.027848262874039412  0.013921061514998279 0.038588776408701418  0.014294595290421874 0.049337309477815901  0.014667985012009943 0.060093862041660999  0.015041230580093767 0.070858434047599686  0.015414331894953115 0.081631025446184183  0.015787288857663562 0.092411636178394693  0.016160101367289847 0.10320026623278904  0.016532769322450847 0.11399691561296413  0.016905292622378276 0.12480158431654516  0.017277671166423758 0.13561427234122006  0.01764990485531559 0.14643497967950928  0.018021993590799923 0.15726370632033357  0.018393937274817418 0.16810045225119699  0.018765735809759043 0.17894521745890427  0.019137389098140112 0.18979800192410454  0.019508897042578965 0.20065880562051158  0.01988025954610606 0.21152762852120427  0.020251476512086697 0.22240447059783378  0.020622547844288519 0.23328933181850969  0.020993473446931255 0.24418221214546945  0.021364253224565033 0.25508311153964847  0.021734887082143217 0.26599202996195082  0.022105374924804799 0.2769089673648687  0.022475716657337941 0.28783392367106636  0.022845912184980222 0.2987668988051691  0.023215961413299624 0.30970789268908538  0.023585864248243382 0.32065690524413565  0.023955620596312066 0.33161393639753906  0.024325230364317996 0.34257898607461029  0.024571539094480954 0.34989436482393699  0.024694668998629155 0.35355339059372703 
 0 4 0.015151515151515152 1 0.030303030303030304 1 0.045454545454545456 1 0.060606060606060608 1 0.07575757575757576 1 0.090909090909090912 1 0.10606060606060606 1 0.12121212121212122 1 0.13636363636363635 1 0.15151515151515152 1 0.16666666666666669 1 0.18181818181818182 1 0.19696969696969696 1 0.21212121212121213 1 0.22727272727272729 1 0.24242424242424243 1 0.25757575757575757 1 0.27272727272727271 1 0.2878787878787879 1 0.30303030303030304 1 0.31818181818181818 1 0.33333333333333337 1 0.34848484848484851 1 0.36363636363636365 1 0.37878787878787878 1 0.39393939393939392 1 0.40909090909090912 1 0.42424242424242425 1 0.43939393939393939 1 0.45454545454545459 1 0.46969696969696972 1 0.48484848484848486 1 0.5 1 0.51515151515151514 1 0.53030303030303028 1 0.54545454545454541 1 0.56060606060606066 1 0.5757575757575758 1 0.59090909090909094 1 0.60606060606060608 1 0.62121212121212122 1 0.63636363636363635 1 0.65151515151515149 1 0.66666666666666674 1 0.68181818181818188 1 0.69696969696969702 1 0.71212121212121215 1 0.72727272727272729 1 0.74242424242424243 1 0.75757575757575757 1 0.77272727272727271 1 0.78787878787878785 1 0.80303030303030309 1 0.81818181818181823 1 0.83333333333333337 1 0.84848484848484851 1 0.86363636363636365 1 0.87878787878787878 1 0.89393939393939392 1 0.90909090909090917 1 0.92424242424242431 1 0.93939393939393945 1 0.95454545454545459 1 0.96969696969696972 1 0.98484848484848486 1 1 4
1 6.2831853071795862 7.0000000000001101 -1 0 
1 6.2831853071795862 0 0 1 
1 0 0 0 1 
1 6.2831853071795862 0 -1 0 
1 6.2831853071795862 7.0000000000001101 -1 0 
1 6.2831853071795862 0 0 1 
1 0 0 0 1 
1 6.2831853071795862 0 -1 0 
1 6.2831853071795862 7.0000000000001101 -1 0 
1 6.2831853071795862 0 0 1 
1 0 0 0 1 
1 6.2831853071795862 0 -1 0 
1 6.2831853071795862 7.0000000000001101 -1 0 
1 6.2831853071795862 0 0 1 
1 0 0 0 1 
1 6.2831853071795862 0 -1 0 
1 6.2831853071795862 7.0000000000001101 -1 0 
1 6.2831853071795862 0 0 1 
1 0 0 0 1 
1 6.2831853071795862 0 -1 0 
1 6.2831853071795862 7.0000000000001101 -1 0 
1 6.2831853071795862 0 0 1 
1 0 0 0 1 
1 6.2831853071795862 0 -1 0 
1 0 0.35355339059347207 1 0 
1 9.4247779607693793 0 0 1 
1 3.1415926535897931 0 0 1 
1 3.1415926535897931 -0.35355339090995552 1 0 
1 3.1415926535897931 -12.699999999551164 -1 0 
1 6.2831853071795862 -0.35355339090995552 1 0 
1 6.2831853071795862 -12.699999999551164 -1 0 
1 6.2831853071795862 7.0000000000001101 -1 0 
1 6.2831853071795862 0 0 1 
1 0 0 0 1 
1 6.2831853071795862 0 -1 0 
1 6.2831853071795862 5.0000000000001101 -1 0 
1 6.2831853071795862 0 0 1 
1 0 0 0 1 
1 6.2831853071795862 0 -1 0 
1 6.2831853071795862 0 0 1 
1 0 0 0 1 
1 6.2831853071795862 -7.1999999999998892 -1 0 
Curves 44
2 0 -1.3877787757388901e-17 3.5000000000001101 0 0 1 -0.99969510215656721 0.024692159163808108 0 -0.024692159163808108 -0.99969510215656721 0 19.999939631099899
7 0 0  1 2 2  -19.999939631099899 -1.3322636500125297e-15 3.5000000000001101  -19.999939631099899 -1.3322636500125297e-15 13.500000000000099 
 -9.6999999999998892 2 0.30000000000010019 2
2 0 -1.3877787757388901e-17 13.500000000000099 0 0 -1 1 1.22464679914735e-16 0 1.22464679914735e-16 -1 0 19.999939631099899
2 0 -1.3877787757388901e-17 3.5000000000001101 0 0 1 -1 0 0 0 -1 0 19.999939631099899
1 -19.993841692637702 -0.49384169263764699 3.5000000000001101 0 0 -1 
7 0 0  3 105 101  -19.993841692637702 -0.49384169263826599 0.49999999999996803  -19.983521929131999 -0.91266084232238698 0.49999999999996902  -19.936468343036001 -1.7496401956269501 0.49999999999996902  -19.787252022863999 -2.9982089508846901 0.49999999999996803  -19.559901057804801 -4.2349395165766399 0.49999999999996803  -19.255336504338199 -5.4549518912707597 0.49999999999996803  -18.8747544198066 -6.6534290782857601 0.49999999999996803  -18.419658954502701 -7.8256399001241999 0.49999999999996902  -17.8918462813883 -8.9669566585668399 0.49999999999996902  -17.293400220077899 -10.072873676572 0.49999999999997002  -16.626683282878901 -11.139025012719801 0.49999999999997102  -15.89432754299 -12.161201716648501 0.49999999999997202  -15.0992241913755 -13.1353684398994 0.49999999999997302  -14.244512136919599 -14.0576793680673 0.49999999999997402  -13.3335656108944 -14.924493402925799 0.49999999999997502  -12.369980847178301 -15.732388536853 0.49999999999997802  -11.3575618847774 -16.478175362202499 0.49999999999997802  -10.3003055503168 -17.1589096624513 0.49999999999997802  -9.2023856793520693 -17.771904035372899 0.49999999999998002  -8.0681366389111506 -18.3147385023622 0.49999999999998401  -6.9020362162824096 -18.785270062024001 0.49999999999998401  -5.7086879416107603 -19.181641150312402 0.49999999999998601  -4.4928029140856598 -19.502286973820102 0.49999999999998801  -3.2591812034680698 -19.745941687268498 0.49999999999999001  -2.0126929003797698 -19.9116433908106 0.49999999999999101  -0.75825889016405301 -19.9987379274177 0.499999999999994  0.49916857378066498 -20.006881465360799 0.499999999999995  1.7546254205022001 -19.936041855588499 0.499999999999998  3.0031553586491899 -19.786498758645202 0.5  4.2398294429133099 -19.558842540627399 0.500000000000002  5.4597655325150898 -19.253971942537198 0.500000000000004  6.6581475649144304 -18.873090532233299 0.500000000000006  7.8302445686579398 -18.4177019529868 0.50000000000000899  8.9714293403034695 -17.889603987399799 0.50000000000001099  10.0771967116894 -17.290881460121302 0.50000000000001299  11.143181335433599 -16.623898007377701 0.50000000000001499  12.165174918447001 -15.891286745812501 0.50000000000001699  13.139142835430199 -15.095939877471 0.50000000000001998  14.0612400567605 -14.240997271967201 0.50000000000002098  14.927826327907001 -13.329834070910399 0.50000000000002398  15.7354805403826 -12.366047363522 0.50000000000002598  16.481014237749001 -11.353441986058501 0.50000000000002798  17.1614842024177 -10.296015501052199 0.50000000000002998  17.774204077062802 -9.1979424158485106 0.50000000000003098  18.316754961680001 -8.0635577020786204 0.50000000000003297  18.786994993296101 -6.89733968359484 0.50000000000003497  19.183067688239401 -5.7038923512311204 0.50000000000003597  19.5034096942838 -4.4879272085070001 0.50000000000003797  19.746755383344201 -3.25424459193699 0.50000000000003897  19.912147741222501 -2.00771501741787 0.50000000000004097  19.9873238345536 -0.92090512018946002 0.50000000000004197  19.999945689161301 -0.250980822900709 0.50000000000004297  19.999939631099998 -2.08846372220775e-15 0.50000000000004297  19.999964563172799 0.41894626987161399 0.50000000000004396  19.973592151022402 1.2568322846134601 0.50000000000004396  19.8552511850164 2.5087048270778798 0.50000000000004297  19.658507086747001 3.7506721025027399 0.50000000000004297  19.384160134093801 4.9778328544847001 0.50000000000004297  19.033287077674998 6.1853420217961403 0.50000000000004297  18.607274786183499 7.3684327287469902 0.50000000000004197  18.107804617070698 8.5224343367045208 0.50000000000004197  17.536848499704298 9.6427910883927606 0.50000000000004097  16.8966604215465 10.725080038027899 0.50000000000003997  16.189767725210299 11.765028526977799 0.50000000000003897  15.4189610786757 12.7585310474055 0.50000000000003797  14.5872834723188 13.7016654510482 0.50000000000003697  13.698018202039099 14.590708432787199 0.50000000000003597  12.754675908474001 15.422150229583901 0.50000000000003497  11.7609807174252 16.192708476298801 0.50000000000003397  10.7208555378309 16.899341163814999 0.50000000000003297  9.6384065748898795 17.539258648277301 0.50000000000003098  8.5179071195938203 18.1099346640462 0.50000000000002898  7.3637806786319304 18.6091162968868 0.50000000000002798  6.18058351127568 19.034832878021199 0.50000000000002598  4.9729866421825903 19.3854037639334 0.50000000000002398  3.7457574211296598 19.659444971211698 0.50000000000002198  2.5037407024744498 19.855874640237399 0.50000000000001998  1.2518397186433401 19.973917306148898 0.50000000000001799  -0.0050032768442668796 20.013106960221599 0.50000000000001599  -1.2618265204003301 19.9732888895761 0.50000000000001399  -2.5136683264132902 19.854620287953999 0.50000000000001199  -3.7555866749859899 19.657569635148601 0.50000000000000999  -4.9826787220373703 19.382914847540501 0.50000000000000799  -6.1901001547451697 19.031740207040301 0.500000000000006  -7.37308431592011 18.6054320805614 0.500000000000003  -8.5269610218101697 18.105673446922101 0.500000000000001  -9.6471749990477704 17.534437252783398 0.499999999999999  -10.729303867953799 16.893978623851801 0.499999999999997  -11.7690756012035 16.186825962096599 0.499999999999994  -12.762385388932801 15.415770964126599 0.49999999999999201  -13.705311843699899 14.583857600133101 0.49999999999999001  -14.594132481346 13.694370096907701 0.49999999999998801  -15.425338416572799 12.7508199723717 0.49999999999998601  -16.195648215473099 11.756932172821401 0.49999999999998401  -16.902020849388901 10.7166303675438 0.49999999999998201  -17.541667702459002 9.6340214591232591 0.49999999999998002  -18.112063572386901 8.5133793696037205 0.49999999999997902  -18.610956669763699 7.3591281701845803 0.49999999999997702  -19.036377394480802 6.1758246073627499 0.49999999999997502  -19.386646533780201 4.9681401455884897 0.49999999999997402  -19.6603803147908 3.7408424066738299 0.49999999999997202  -19.856501751552301 2.49877679075896 0.49999999999997102  -19.9584906068179 1.4141545195863101 0.49999999999997002  -19.9876504904257 0.74474614161395702 0.49999999999996902  -19.993841692637702 0.493841692638262 0.49999999999996902 
 0 4 0.010080832510760101 1 0.020161665021520302 1 0.0302424975322804 1 0.040323330043040603 1 0.050404162553800702 1 0.060484995064560801 1 0.070565827575320997 1 0.080646660086081096 1 0.090727492596841305 1 0.100808325107601 1 0.110889157618362 1 0.120969990129122 1 0.13105082263988199 1 0.14113165515064199 1 0.151212487661402 1 0.161293320172162 1 0.171374152682922 1 0.181454985193683 1 0.191535817704443 1 0.201616650215203 1 0.211697482725963 1 0.22177831523672301 1 0.23185914774748301 1 0.24193998025824301 1 0.25202081276900401 1 0.26210164527976398 1 0.27218247779052401 1 0.28226331030128399 1 0.29234414281204402 1 0.30242497532280399 1 0.31250580783356402 1 0.32258664034432499 1 0.33266747285508502 1 0.342748305365845 1 0.35282913787660503 1 0.362909970387365 1 0.37299080289812497 1 0.383071635408886 1 0.39315246791964598 1 0.40323330043040601 1 0.41331413294116598 1 0.42339496545192601 1 0.43347579796268598 1 0.44355663047344701 1 0.45363746298420698 1 0.46371829549496701 1 0.47379912800572699 1 0.48387996051648702 1 0.49396079302724699 1 0.49999999999827199 3 0.51008083250910197 1 0.520161665019932 1 0.53024249753076202 1 0.54032333004159105 1 0.55040416255242097 1 0.560484995063251 1 0.57056582757408103 1 0.58064666008491095 1 0.59072749259574098 1 0.60080832510657001 1 0.61088915761740004 1 0.62096999012822995 1 0.63105082263905998 1 0.64113165514988901 1 0.65121248766071904 1 0.66129332017154896 1 0.67137415268237899 1 0.68145498519320902 1 0.69153581770403905 1 0.70161665021486797 1 0.71169748272569799 1 0.72177831523652802 1 0.73185914774735805 1 0.74193998025818797 1 0.752020812769017 1 0.76210164527984703 1 0.77218247779067695 1 0.78226331030150698 1 0.792344142812337 1 0.80242497532316603 1 0.81250580783399595 1 0.82258664034482598 1 0.83266747285565601 1 0.84274830536648604 1 0.85282913787731496 1 0.86290997038814499 1 0.87299080289897502 1 0.88307163540980504 1 0.89315246792063496 1 0.90323330043146499 1 0.91331413294229502 1 0.92339496545312405 1 0.93347579796395397 1 0.943556630474784 1 0.95363746298561403 1 0.96371829549644406 1 0.97379912800727397 1 0.983879960518103 1 0.99396079302893303 1 1 4
1 -19.993841692637702 0.49384169263771999 0.50000000000011402 4.0264088359731402e-14 -4.0190073491422999e-14 1 
7 0 0  3 19 17  -19.9938416926381 -0.49384169263823602 3.5000000000001501  -19.983482635115301 -0.48348263511537198 3.48938831336456  -19.9627554601045 -0.46275546010473501 3.4681709798538201  -19.931678859323 -0.43167885932205102 3.4364055849217601  -19.900580647826299 -0.400580647829968 3.4046644945153401  -19.8694761875099 -0.36947618749607603 3.3729636803370502  -19.838382460868999 -0.33838246092069402 3.3413206691530801  -19.807326902542801 -0.30732690234987298 3.3097634903796198  -19.776333846996501 -0.27633384771569502 3.27831687138054  -19.745423151815899 -0.24542314913775101 3.2470008485050799  -19.714605017796899 -0.21460501851298799 3.2158255719693698  -19.683868905844399 -0.18386890565272301 3.1847801954405499  -19.653194758871699 -0.153194758923105 3.15384434588701  -19.622558334615501 -0.12255833460167399 3.1229935709251699  -19.5919321875453 -0.0919321875490208 3.09220034069727  -19.561299427605899 -0.061299427604902701 3.0614478926467399  -19.530644698241201 -0.030644698241392699 3.0307211087638999  -19.510217955591798 -0.0102179555918352 3.0102783235837798  -19.5000000592471 -5.9247083679545401e-08 3.00006042724966 
 0 4 0.062142691886122398 1 0.124436417219629 1 0.18686055059703099 1 0.249425900674902 1 0.31205158085880302 1 0.374706584712651 1 0.437337734084915 1 0.499881948194905 1 0.56233443848061304 1 0.62469997731572302 1 0.68704150267299302 1 0.74941271402242304 1 0.81184482514742895 1 0.87442128149948195 1 0.93713217845943897 1 1 4
7 0 0  3 19 17  -19.9938416926381 0.49384169263781202 3.5000000000004898  -19.983499634247099 0.483499634246988 3.4894057270908498  -19.962807671223 0.46280767122321598 3.4682244106103299  -19.931779908489201 0.43177990848942599 3.43650882374765  -19.900733096024599 0.40073309602466101 3.4048200067476202  -19.869679747268801 0.36967974726846298 3.37317101638547  -19.838633684170102 0.33863368416893502 3.3415761647745899  -19.8076172438772 0.30761724387507999 3.3100583208584902  -19.776650217557702 0.27665021755418701 3.2786376437442599  -19.7457487674831 0.24574876747798699 3.2473304882394101  -19.714921202276201 0.21492120226917799 3.2161451728143202  -19.684158944487901 0.18415894447872999 3.1850729154269999  -19.6534456657016 0.15344566569000401 3.1540971798448898  -19.6227616132912 0.12276161327684899 3.1231980902696801  -19.592084451226199 0.092084451208867699 3.0923532909378499  -19.5614004295205 0.0614004294997922 3.06154918491228  -19.530697056999699 0.030697056975358399 3.0307735249096801  -19.510235015934001 0.0102350159071143 3.0102953839480699  -19.5000000592613 5.9233003779635101e-08 3.0000604272496498 
 0 4 0.0622079768878833 1 0.124539556058365 1 0.18697775013953899 1 0.24953125664894099 1 0.31213393433161102 1 0.374760498789665 1 0.43736759995573299 1 0.49990390528287998 1 0.56236554416763396 1 0.62475643388204904 1 0.687127827212063 1 0.74952337839870598 1 0.81196844877988905 1 0.87453065171363198 1 0.937201808156503 1 1 4
2 0 1.33226762955019e-15 0 0 0 1 -1 5.47460077337631e-30 0 -5.47460077337631e-30 -1 0 19.4999396315485
7 0 0  1 2 2  -19.499939631773049 1.266604304287071e-15 -2.2454829662343911e-10  -19.500000000448775 1.2665401829071726e-15 6.0368451288983493e-05 
 -0.35355339027617838 2 -0.35346801607614342 2
7 0 0  3 19 17  -19.993841692638199 0.49384169263825201 0.50000000000017997  -19.9834826338695 0.48348263386958201 0.48938831208827699  -19.9627554563648 0.46275545636501503 0.46817097602636898  -19.931678851845898 0.431678851844911 0.43640557728245499  -19.900580636606399 0.40058063661014498 0.40466448306993502  -19.869476172545902 0.36947617253208198 0.37296366509538897  -19.838382442163599 0.338382442215313 0.34132065012936003  -19.807326880105599 0.30732687991276703 0.30976346759505602  -19.776333820843401 0.27633382156250302 0.27831684486251801  -19.745423121967299 0.245423119289261 0.24700081828571899  -19.714604984276001 0.21460498499210301 0.2158255380836  -19.683868868671698 0.18386886847994099 0.184780157920309  -19.6531947180627 0.153194718114257 0.153844304758713  -19.622558290179001 0.12255829016447201 0.12299352621158501  -19.5919321394855 0.091932139492042098 0.092200292404756995  -19.561299375915301 0.061299375903697897 0.0614478408138045  -19.530644642935801 0.0306446429760255 0.0307210532899839  -19.510217897825601 0.0102178977394524 0.0102782659592312  -19.5000000002244 -1.4195607486547701e-15 6.0368675665806198e-05 
 0 4 0.062142691840225701 1 0.124436417147226 1 0.186860550514858 1 0.24942590060116601 1 0.31205158080131501 1 0.37470658467510898 1 0.43733773406416199 1 0.49988194817951598 1 0.56233443845861097 1 0.62469997727585203 1 0.68704150261228902 1 0.74941271394487896 1 0.81184482506109801 1 0.87442128142341902 1 0.93713217841125995 1 1 4
7 0 0  3 19 17  -19.5000000002244 -3.80892304964773e-15 6.0368675665362102e-05  -19.510217897825498 -0.010217897739352 0.010278265959146301  -19.530644642935499 -0.030644642975720001 0.0307210532897093  -19.5612993759148 -0.061299375903126702 0.061447840813246897  -19.591932139484602 -0.091932139491172099 0.0922002924039136  -19.622558290177899 -0.122558290163318 0.12299352621045  -19.6531947180613 -0.153194718112835 0.15384430475730199  -19.68386886867 -0.18386886847829501 0.184780157918676  -19.714604984274299 -0.214604984990311 0.21582553808180999  -19.745423121965501 -0.245423119287421 0.24700081828387299  -19.7763338208416 -0.27633382156070901 0.278316844860723  -19.807326880104 -0.30732687991111601 0.309763467593408  -19.838382442162199 -0.33838244221388902 0.341320650127935  -19.8694761725448 -0.36947617253092302 0.37296366509423301  -19.9005806366056 -0.40058063660927201 0.40466448306907399  -19.931678851845302 -0.43167885184433202 0.43640557728187801  -19.962755456364501 -0.462755456364702 0.46817097602607799  -19.9834826338694 -0.48348263386946999 0.48938831208818401  -19.993841692638199 -0.49384169263824401 0.50000000000017797 
 0 4 0.062867821589137604 1 0.12557871857720701 1 0.18815517493960601 1 0.25058728605575498 1 0.31295849738821202 1 0.37530002272447599 1 0.43766556154156999 1 0.50011805182061098 1 0.56266226593600499 1 0.625293415325202 1 0.68794841919916305 1 0.75057409939944397 1 0.81313944948581995 1 0.875563582853358 1 0.93785730816013602 1 1 4
2 11.13693180369 -11.136931803688199 7.0000000000001101 0 0 -1 -1 0 0 0 1 0 2.4999999999999498
7 0 0  1 2 2  8.6369318036900502 -11.136931803688199 0  8.6369318036900502 -11.136931803688199 7.0000000000001101 
 0 2 7.0000000000001101 2
2 11.13693180369 -11.136931803688199 0 0 0 -1 -1 0 0 0 1 0 2.4999999999999498
2 -11.13693180369 -11.136931803688199 7.0000000000001101 0 0 -1 -1 0 0 0 1 0 2.4999999999999498
7 0 0  1 2 2  -13.636931803689951 -11.136931803688199 0  -13.636931803689951 -11.136931803688199 7.0000000000001101 
 0 2 7.0000000000001101 2
2 -11.13693180369 -11.136931803688199 0 0 0 -1 -1 0 0 0 1 0 2.4999999999999498
2 15.75 3.0343783041836702e-14 7.0000000000001101 0 0 -1 -1 0 0 0 1 0 2.4999999999999498
7 0 0  1 2 2  13.25000000000005 3.0956086218747878e-14 0  13.25000000000005 3.0956086218747878e-14 7.0000000000001101 
 0 2 7.0000000000001101 2
2 15.75 3.0198066269804302e-14 0 0 0 -1 -1 0 0 0 1 0 2.4999999999999498
2 11.13693180369 11.1369318036881 7.0000000000001101 0 0 -1 -1 0 0 0 1 0 2.4999999999999498
7 0 0  1 2 2  8.6369318036900502 11.1369318036881 0  8.6369318036900502 11.1369318036881 7.0000000000001101 
 0 2 7.0000000000001101 2
2 11.13693180369 11.1369318036881 0 0 0 -1 -1 0 0 0 1 0 2.4999999999999498
2 0 15.75 7.0000000000001101 0 0 -1 -1 0 0 0 1 0 2.4999999999999498
7 0 0  1 2 2  -2.4999999999999498 15.75 0  -2.4999999999999498 15.75 7.0000000000001101 
 0 2 7.0000000000001101 2
2 0 15.75 0 0 0 -1 -1 0 0 0 1 0 2.4999999999999498
2 -11.13693180369 11.1369318036881 7.0000000000001101 0 0 -1 -1 0 0 0 1 0 2.4999999999999498
7 0 0  1 2 2  -13.636931803689951 11.1369318036881 0  -13.636931803689951 11.1369318036881 7.0000000000001101 
 0 2 7.0000000000001101 2
2 -11.13693180369 11.1369318036881 0 0 0 -1 -1 0 0 0 1 0 2.4999999999999498
2 0 0 0 0 0 -1 -1 -1.22464679914735e-16 -0 -1.22464679914735e-16 1 0 10.4999999999993
7 0 0  1 2 2  10.000000000224233 4.7666268765500822e-15 0.50000000067306916  10.499999999999579 5.0115501694707602e-15 2.7844393457598926e-13 
 -0.35355339090995552 2 0.35355339059347202 2
2 0 -1.3877787757388901e-17 0.50000000044883597 0 0 -1 1 -1.22464679914735e-16 0 -1.22464679914735e-16 -1 -0 10
2 0 -1.3877787757388901e-17 0.50000000044883597 0 0 -1 -1 2.4492935982947099e-16 0 2.4492935982947099e-16 1 0 10
2 0 -15.75 7.0000000000001101 0 0 -1 -1 0 0 0 1 0 2.4999999999999498
7 0 0  1 2 2  -2.4999999999999498 -15.75 0  -2.4999999999999498 -15.75 7.0000000000001101 
 0 2 7.0000000000001101 2
2 0 -15.75 0 0 0 -1 -1 0 0 0 1 0 2.4999999999999498
2 -15.75 -1.17232612506009e-14 5.0000000000001101 0 0 -1 -1 0 0 0 1 0 2.4999999999999498
7 0 0  1 2 2  -18.24999999999995 -1.1110958073689724e-14 0  -18.24999999999995 -1.1110958073689724e-14 5.0000000000001101 
 0 2 5.0000000000001101 2
2 -15.75 -1.15463194561016e-14 0 0 0 -1 -1 0 0 0 1 0 2.4999999999999498
7 0 0  1 2 2  -10 -1.3877787757388901e-17 0.50000000044883564  -10 -1.3877787757388901e-17 6.0000000000001101 
 -12.699999999551164 2 -7.1999999999998892 2
2 0 0 6.0000000000001101 0 0 -1 -1 0 0 0 1 0 10
1 -19.499999999999901 -3.9519646225781602e-14 3.0000604570975602 -4.0264087176007502e-14 1.33952596197091e-14 -1 
Polygon3D 0
PolygonOnTriangulations 0
Surfaces 26
10 6.591949208711867e-17 6.2831853071795862 -12.700000000000031 0.30000000000010019
2 0 -1.3877787757388901e-17 13.199999999999999 0 0 1 -1 0 0 0 -1 0 19.999939631099899
3 0 7.3552275381416502e-16 3.2500302136249202 0 0 1 -1 0 0 0 -1 0 19.749969845173698
0.78539816249999805
1 0 1.28785870856518e-14 13.500000000000099 0 0 1 -1 0 0 0 -1 0 
1 -19.5 1.28785870856518e-14 -2.7999999999999501 -0.70710678118654702 0.70710678118654802 0 0.70710678118654802 0.70710678118654702 0 0 0 -1 
10 0 6.2831853071795862 -0.35355339027617838 0.3535533905937277
3 6.4107214122770402e-16 1.00106352917025e-15 0.249999999775608 -2.5642885625986999e-15 -1.06216310046662e-15 1 -1 2.7236926901409098e-30 -2.5642885625986999e-15 1.7516230804060213e-44 -1 -1.06216310046662e-15 19.749939631324501
0.78539816250014205
1 -22.5 3.0000000000000102 -2.7999999999999501 -0.70710678118654757 -0.70710678118654757 0 -0.70710678118654757 0.70710678118654757 0 -0 0 -1 
1 9.2387953251100008 3.8268343236508899 0 0 0 1 -1 0 0 0 -1 0 
10 0 6.2831853071795862 0 7.0000000000001101
2 11.13693180369 -11.136931803688199 0 0 0 1 -1 0 0 0 -1 0 2.4999999999999498
1 11.13693180369 -11.136931803688199 7.0000000000001101 0 0 1 -1 0 0 0 -1 0 
10 0 6.2831853071795862 0 7.0000000000001101
2 -11.13693180369 -11.136931803688199 0 0 0 1 -1 0 0 0 -1 0 2.4999999999999498
1 -11.13693180369 -11.136931803688199 7.0000000000001101 0 0 1 -1 0 0 0 -1 0 
10 0 6.2831853071795862 0 7.0000000000001101
2 15.75 3.0343783041836702e-14 0 0 0 1 -1 0 0 0 -1 0 2.4999999999999498
1 15.75 1.28785870856518e-14 7.0000000000001101 0 0 1 -1 0 0 0 -1 0 
10 0 6.2831853071795862 0 7.0000000000001101
2 11.13693180369 11.1369318036881 0 0 0 1 -1 0 0 0 -1 0 2.4999999999999498
1 11.13693180369 11.1369318036881 7.0000000000001101 0 0 1 -1 0 0 0 -1 0 
10 0 6.2831853071795862 0 7.0000000000001101
2 0 15.75 0 0 0 1 -1 0 0 0 -1 0 2.4999999999999498
1 0 15.75 7.0000000000001101 0 0 1 -1 0 0 0 -1 0 
10 0 6.2831853071795862 0 7.0000000000001101
2 -11.13693180369 11.1369318036881 0 0 0 1 -1 0 0 0 -1 0 2.4999999999999498
1 -11.13693180369 11.1369318036881 7.0000000000001101 0 0 1 -1 0 0 0 -1 0 
10 3.1415926535897931 9.4247779607693793 -0.35355339090995552 0.35355339059347202
3 0 -1.3183898417423899e-16 0.25000000022477997 0 0 -1 -1 -1.22464679914735e-16 -0 -1.22464679914735e-16 1 0 10.2500000002238
0.78539816250000305
10 0 6.2831853071795862 -12.699999999551164 -7.1999999999998892
2 0 -1.3877787757388901e-17 13.199999999999999 0 0 1 -1 0 0 0 -1 0 10
10 0 6.2831853071795862 0 7.0000000000001101
2 0 -15.75 0 0 0 1 -1 0 0 0 -1 0 2.4999999999999498
1 0 -15.75 7.0000000000001101 0 0 1 -1 0 0 0 -1 0 
10 0 6.2831853071795862 0 5.0000000000001101
2 -15.75 -1.17232612506009e-14 0 0 0 1 -1 0 0 0 -1 0 2.4999999999999498
1 -15.75 1.28785870856518e-14 5.0000000000001101 0 0 1 -1 0 0 0 -1 0 
1 4.61939766256 1.9134171618254401 6.0000000000001101 0 0 1 -1 0 0 0 -1 0 
Triangulations 0

TShapes 139
Ve
1e-07
-19.9938416926382 0.49384169263769 3.50000000000057
0 0

0101101
*
Ve
1e-05
-19.9999396311 3.50163733308205e-15 3.50000000000011
0 0

0101101
*
Ed
 1e-07 1 1 0
1  1 0 0 0.0246946689986008
2  1 1 0 0 0.0246946689986008
2  2 2 0 0 0.0246946689986008
4 C0 1 0 2 0
0

0101000
+139 0 -138 0 *
Ve
1e-05
-19.9999396311 8.02550947321508e-16 13.5000000000002
0 0

0101101
*
Ed
 1e-05 1 1 0
1  2 0 -9.69999999999989 0.3000000000001
3  3 4CN 1 0 -9.69999999999989 0.3000000000001
0

0101000
+138 0 -136 0 *
Ed
 1e-07 1 1 0
1  3 0 3.14159265358979 9.42477796076938
2  5 1 0 3.14159265358979 9.42477796076938
4 C0 1 0 3 0
0

0101000
+136 0 -136 0 *
Ve
1e-07
-19.9938416926382 -0.493841692638273 3.50000000000011
0 0

0101101
*
Ed
 1e-07 1 1 0
1  4 0 0 0.0246946689986302
2  6 1 0 0 0.0246946689986302
2  7 2 0 0 0.0246946689986302
4 C0 1 0 2 0
0

0101000
+138 0 -133 0 *
Ve
8.08329054701521e-07
-19.9938416926382 -0.493841692638273 0.500000000000114
0 0

0101101
*
Ed
 1e-07 1 1 0
1  5 0 0 3
2  8 1 0 0 3
4 C0 1 0 4 0
0

0101000
+133 0 -131 0 *
Ve
8.08329054701521e-07
-19.9938416926382 0.493841692638277 0.500000000000114
0 0

0101101
*
Ed
 8.08329054701521e-07 1 1 0
1  6 0 0 1
2  9 1 0 0 1
2  10 5 0 0 1
4 C0 1 0 5 0
0

0101000
-129 0 +131 0 *
Ed
 1e-07 1 1 0
1  7 0 -4.24123752294021e-26 3.00000000000046
2  11 1 0 -4.24123752294021e-26 3.00000000000046
4 C0 1 0 6 0
0

0101000
+129 0 -139 0 *
Wi

0101100
+137 0 +135 0 +134 0 -135 0 +132 0 +130 0 +128 0 +127 0 *
Fa
0  1e-07 1 0

0101000
+126 0 *
Ve
1e-07
-19.5000000886464 8.60357549449952e-15 3.00006045709745
0 0

0101101
*
Ed
 1e-07 1 1 0
1  8 0 0 1
2  12 2 0 0 1
4 C0 2 0 4 0
0

0101000
+133 0 -124 0 *
Ed
 1e-07 1 1 0
1  9 0 0 1
2  13 2 0 0 1
4 C0 2 0 6 0
0

0101000
+139 0 -124 0 *
Wi

0101100
-123 0 -132 0 -137 0 +122 0 *
Fa
0  1e-07 2 0

0111000
+121 0 *
Ve
1e-05
-19.4999396315484 3.69469154114835e-15 -2.99337443721015e-10
0 0

0101101
*
Ed
 1e-07 1 1 0
1  10 0 0 6.28318530717959
2  14 5 0 0 6.28318530717959
4 C0 5 0 7 0
0

0101000
+119 0 -119 0 *
Ve
1e-05
-19.5000000002244 -2.26937135556968e-16 6.03686756903698e-05
0 0

0101101
*
Ed
 1e-05 1 1 0
1  11 0 -0.353553390276178 -0.353468016076143
3  15 16CN 5 0 -0.353553390276178 -0.353468016076143
0

0101000
+119 0 -117 0 *
Ed
 1e-07 1 1 0
1  12 0 0 1
2  17 5 0 0 1
4 C0 5 0 6 0
0

0101000
-117 0 +129 0 *
Ed
 1e-07 1 1 0
1  13 0 0 1
2  18 5 0 0 1
4 C0 5 0 4 0
0

0101000
-131 0 +117 0 *
Wi

0101100
+118 0 +116 0 -115 0 -128 0 -114 0 -116 0 *
Fa
0  1e-07 5 0

0111000
+113 0 *
Ve
1e-05
8.63693180369 -11.1369318036882 7.00000000000023
0 0

0101101
*
Ed
 1e-07 1 1 0
1  14 0 0 6.28318530717959
2  19 8 0 0 6.28318530717959
4 C0 8 0 9 0
0

0101000
+111 0 -111 0 *
Ve
1e-05
8.63693180369 -11.1369318036882 1.13686837721616e-13
0 0

0101101
*
Ed
 1e-05 1 1 0
1  15 0 0 7.00000000000011
3  20 21CN 8 0 0 7.00000000000011
0

0101000
-111 0 +109 0 *
Ed
 1e-07 1 1 0
1  16 0 0 6.28318530717959
2  22 8 0 0 6.28318530717959
4 C0 8 0 7 0
0

0101000
-109 0 +109 0 *
Wi

0101100
+110 0 -108 0 -107 0 +108 0 *
Fa
0  1e-07 8 0

0111000
+106 0 *
Ve
1e-05
-13.63693180369 -11.1369318036882 7.00000000000023
0 0

0101101
*
Ed
 1e-07 1 1 0
1  17 0 0 6.28318530717959
2  23 10 0 0 6.28318530717959
4 C0 10 0 11 0
0

0101000
+104 0 -104 0 *
Ve
1e-05
-13.63693180369 -11.1369318036882 1.13686837721616e-13
0 0

0101101
*
Ed
 1e-05 1 1 0
1  18 0 0 7.00000000000011
3  24 25CN 10 0 0 7.00000000000011
0

0101000
-104 0 +102 0 *
Ed
 1e-07 1 1 0
1  19 0 0 6.28318530717959
2  26 10 0 0 6.28318530717959
4 C0 10 0 7 0
0

0101000
-102 0 +102 0 *
Wi

0101100
+103 0 -101 0 -100 0 +101 0 *
Fa
0  1e-07 10 0

0111000
+99 0 *
Ve
1e-05
13.25 3.04458369417657e-14 7.00000000000023
0 0

0101101
*
Ed
 1e-07 1 1 0
1  20 0 0 6.28318530717959
2  27 12 0 0 6.28318530717959
4 C0 12 0 13 0
0

0101000
+97 0 -97 0 *
Ve
1e-05
13.25 3.04253037160421e-14 1.13686837721616e-13
0 0

0101101
*
Ed
 1e-05 1 1 0
1  21 0 0 7.00000000000011
3  28 29CN 12 0 0 7.00000000000011
0

0101000
-97 0 +95 0 *
Ed
 1e-07 1 1 0
1  22 0 0 6.28318530717959
2  30 12 0 0 6.28318530717959
4 C0 12 0 7 0
0

0101000
-95 0 +95 0 *
Wi

0101100
+96 0 -94 0 -93 0 +94 0 *
Fa
0  1e-07 12 0

0111000
+92 0 *
Ve
1e-05
8.63693180369 11.1369318036881 7.00000000000023
0 0

0101101
*
Ed
 1e-07 1 1 0
1  23 0 0 6.28318530717959
2  31 14 0 0 6.28318530717959
4 C0 14 0 15 0
0

0101000
+90 0 -90 0 *
Ve
1e-05
8.63693180369 11.1369318036881 1.13686837721616e-13
0 0

0101101
*
Ed
 1e-05 1 1 0
1  24 0 0 7.00000000000011
3  32 33CN 14 0 0 7.00000000000011
0

0101000
-90 0 +88 0 *
Ed
 1e-07 1 1 0
1  25 0 0 6.28318530717959
2  34 14 0 0 6.28318530717959
4 C0 14 0 7 0
0

0101000
-88 0 +88 0 *
Wi

0101100
+89 0 -87 0 -86 0 +87 0 *
Fa
0  1e-07 14 0

0111000
+85 0 *
Ve
1e-05
-2.5 15.75 7.00000000000023
0 0

0101101
*
Ed
 1e-07 1 1 0
1  26 0 0 6.28318530717959
2  35 16 0 0 6.28318530717959
4 C0 16 0 17 0
0

0101000
+83 0 -83 0 *
Ve
1e-05
-2.5 15.75 1.13686837721616e-13
0 0

0101101
*
Ed
 1e-05 1 1 0
1  27 0 0 7.00000000000011
3  36 37CN 16 0 0 7.00000000000011
0

0101000
-83 0 +81 0 *
Ed
 1e-07 1 1 0
1  28 0 0 6.28318530717959
2  38 16 0 0 6.28318530717959
4 C0 16 0 7 0
0

0101000
-81 0 +81 0 *
Wi

0101100
+82 0 -80 0 -79 0 +80 0 *
Fa
0  1e-07 16 0

0111000
+78 0 *
Ve
1e-05
-13.63693180369 11.1369318036881 7.00000000000023
0 0

0101101
*
Ed
 1e-07 1 1 0
1  29 0 0 6.28318530717959
2  39 18 0 0 6.28318530717959
4 C0 18 0 19 0
0

0101000
+76 0 -76 0 *
Ve
1e-05
-13.63693180369 11.1369318036881 1.13686837721616e-13
0 0

0101101
*
Ed
 1e-05 1 1 0
1  30 0 0 7.00000000000011
3  40 41CN 18 0 0 7.00000000000011
0

0101000
-76 0 +74 0 *
Ed
 1e-07 1 1 0
1  31 0 0 6.28318530717959
2  42 18 0 0 6.28318530717959
4 C0 18 0 7 0
0

0101000
-74 0 +74 0 *
Wi

0101100
+75 0 -73 0 -72 0 +73 0 *
Fa
0  1e-07 18 0

0111000
+71 0 *
Ve
1e-05
10.4999999999995 2.92795483194317e-15 5.6843418860808e-13
0 0

0101101
*
Ed
 1e-07 1 1 0
1  32 0 3.14159265358979 9.42477796076938
2  43 20 0 3.14159265358979 9.42477796076938
4 C0 20 0 7 0
0

0101000
-69 0 +69 0 *
Ve
1e-05
10.000000000299 1.94855941332012e-15 0.500000000448949
0 0

0101101
*
Ed
 1e-05 1 1 0
1  33 0 -0.353553390909956 0.353553390593472
3  44 45CN 20 0 -0.353553390909956 0.353553390593472
0

0101000
-69 0 +67 0 *
Ve
1e-05
-10.0000000001494 -4.61413786333707e-16 0.500000000448949
0 0

0101101
*
Ed
 1e-07 1 1 0
1  34 0 0 3.14159265358979
2  46 20 0 0 3.14159265358979
2  47 21 0 0 3.14159265358979
4 C0 20 0 21 0
0

0101000
-65 0 +67 0 *
Ed
 1e-07 1 1 0
1  35 0 0 3.14159265358979
2  48 20 0 0 3.14159265358979
2  49 21 0 0 3.14159265358979
4 C0 20 0 21 0
0

0101000
-67 0 +65 0 *
Wi

0101100
-68 0 -66 0 +64 0 +63 0 +66 0 *
Fa
0  1e-07 20 0

0101000
+62 0 *
Ve
1e-05
-2.5 -15.75 7.00000000000023
0 0

0101101
*
Ed
 1e-07 1 1 0
1  36 0 0 6.28318530717959
2  50 22 0 0 6.28318530717959
4 C0 22 0 23 0
0

0101000
+60 0 -60 0 *
Ve
1e-05
-2.5 -15.75 1.13686837721616e-13
0 0

0101101
*
Ed
 1e-05 1 1 0
1  37 0 0 7.00000000000011
3  51 52CN 22 0 0 7.00000000000011
0

0101000
-60 0 +58 0 *
Ed
 1e-07 1 1 0
1  38 0 0 6.28318530717959
2  53 22 0 0 6.28318530717959
4 C0 22 0 7 0
0

0101000
-58 0 +58 0 *
Wi

0101100
+59 0 -57 0 -56 0 +57 0 *
Fa
0  1e-07 22 0

0111000
+55 0 *
Ve
1e-05
-18.25 -1.16212073506719e-14 5.00000000000023
0 0

0101101
*
Ed
 1e-07 1 1 0
1  39 0 0 6.28318530717959
2  54 24 0 0 6.28318530717959
4 C0 24 0 25 0
0

0101000
+53 0 -53 0 *
Ve
1e-05
-18.25 -1.15341877208849e-14 1.13686837721616e-13
0 0

0101101
*
Ed
 1e-05 1 1 0
1  40 0 0 5.00000000000011
3  55 56CN 24 0 0 5.00000000000011
0

0101000
-53 0 +51 0 *
Ed
 1e-07 1 1 0
1  41 0 0 6.28318530717959
2  57 24 0 0 6.28318530717959
4 C0 24 0 7 0
0

0101000
-51 0 +51 0 *
Wi

0101100
+52 0 -50 0 -49 0 +50 0 *
Fa
0  1e-07 24 0

0111000
+48 0 *
Ve
1e-05
-10 3.63090131076581e-16 6.00000000000023
0 0

0101101
*
Ed
 1e-05 1 1 0
1  42 0 -12.6999999995512 -7.19999999999989
3  58 59CN 21 0 -12.6999999995512 -7.19999999999989
0

0101000
+65 0 -46 0 *
Ed
 1e-07 1 1 0
1  43 0 0 6.28318530717959
2  60 21 0 0 6.28318530717959
4 C0 21 0 26 0
0

0101000
+46 0 -46 0 *
Wi

0101100
-63 0 +45 0 +44 0 -45 0 -64 0 *
Fa
0  1e-07 21 0

0111000
+43 0 *
Ed
 1e-07 1 1 0
1  44 0 1.10134127612087e-13 3.00000008842187
4 C0 4 0 6 0
0

0101000
+124 0 -117 0 *
Wi

0101100
+41 0 +114 0 -130 0 +123 0 *
Fa
0  1e-07 4 0

0111000
+40 0 *
Wi

0101100
-41 0 -122 0 -127 0 +115 0 *
Fa
0  1e-07 6 0

0111000
+38 0 *
Wi

0101100
-134 0 *
Fa
0  1e-07 3 0

0111000
+36 0 *
Wi

0101100
-118 0 *
Wi

0101100
-107 0 *
Wi

0101100
-100 0 *
Wi

0101100
-93 0 *
Wi

0101100
-86 0 *
Wi

0101100
-79 0 *
Wi

0101100
-72 0 *
Wi

0101100
-68 0 *
Wi

0101100
-56 0 *
Wi

0101100
-49 0 *
Fa
0  1e-07 7 0

0111000
-34 0 -33 0 -32 0 -31 0 -30 0 -29 0 -28 0 -27 0 -26 0 -25 0 
*
Wi

0101100
+110 0 *
Fa
0  1e-07 9 0

0111000
-23 0 *
Wi

0101100
+103 0 *
Fa
0  1e-07 11 0

0111000
-21 0 *
Wi

0101100
+96 0 *
Fa
0  1e-07 13 0

0111000
-19 0 *
Wi

0101100
+89 0 *
Fa
0  1e-07 15 0

0111000
-17 0 *
Wi

0101100
+82 0 *
Fa
0  1e-07 17 0

0111000
-15 0 *
Wi

0101100
+75 0 *
Fa
0  1e-07 19 0

0111000
-13 0 *
Wi

0101100
+59 0 *
Fa
0  1e-07 23 0

0111000
-11 0 *
Wi

0101100
+52 0 *
Fa
0  1e-07 25 0

0111000
-9 0 *
Wi

0101100
+44 0 *
Fa
0  1e-07 26 0

0111000
-7 0 *
Sh

0101100
+125 0 +120 0 +112 0 -105 0 -98 0 -91 0 -84 0 -77 0 -70 0 -61 0 
-54 0 -47 0 -42 0 +39 0 +37 0 +35 0 -24 0 -22 0 -20 0 -18 0 
-16 0 -14 0 -12 0 -10 0 -8 0 -6 0 *
So

0100000
+5 0 *
Ve
1e-07
0 0 0
0 0

0101101
*
Co

0100000
+3 0 *
Co

1100000
+4 0 +2 0 *

+1 0 