ISO-10303-21;
HEADER;
FILE_DESCRIPTION(('STEP AP242'),
    '1');
FILE_NAME('6_WRIST3',
    '2026-05-29T13:14:43',
    (''),
    (''),
    'C3D Converter',
    'C3D Toolkit',
    '');
/**/
FILE_SCHEMA(('AP242_MANAGED_MODEL_BASED_3D_ENGINEERING_MIM_LF { 1 0 10303 442 1 1 4 }'));
ENDSEC;

DATA;
#1=PRODUCT_DEFINITION('','UNSPECIFIED',#31,#34);
#2=SHAPE_DEFINITION_REPRESENTATION(#29,#3);
#3=SHAPE_REPRESENTATION('NONE',(#4),#8);
#4=AXIS2_PLACEMENT_3D('',#5,#6,#7);
#5=CARTESIAN_POINT('',(0.,0.,0.));
#6=DIRECTION('',(0.,0.,1.));
#7=DIRECTION('',(1.,0.,0.));
#8=(GEOMETRIC_REPRESENTATION_CONTEXT(3)GLOBAL_UNCERTAINTY_ASSIGNED_CONTEXT((#10))
GLOBAL_UNIT_ASSIGNED_CONTEXT((#9,#11,#12))REPRESENTATION_CONTEXT('NONE','NONE'));
#9=(LENGTH_UNIT()NAMED_UNIT(*)SI_UNIT(.MILLI.,.METRE.));
#10=UNCERTAINTY_MEASURE_WITH_UNIT(LENGTH_MEASURE(1.E-5),#9,'NONE','NONE');
#11=(NAMED_UNIT(*)PLANE_ANGLE_UNIT()SI_UNIT($,.RADIAN.));
#12=(NAMED_UNIT(*)SI_UNIT($,.STERADIAN.)SOLID_ANGLE_UNIT());
#13=MANIFOLD_SOLID_BREP('',#14);
#14=CLOSED_SHELL('',(#51,#52,#53,#54,#55,#56,#57,#58,#59,#60,#61,#62,#63,#64,#65,
#66,#67,#68,#69,#70,#71,#72,#73,#74,#75,#76));
#15=COLOUR_RGB('',0.564705882352941,0.564705882352941,0.564705882352941);
#16=FILL_AREA_STYLE_COLOUR('',#15);
#17=FILL_AREA_STYLE($,(#16));
#18=SURFACE_STYLE_FILL_AREA(#17);
#19=SURFACE_SIDE_STYLE('',(#18));
#20=SURFACE_STYLE_USAGE(.BOTH.,#19);
#21=PRESENTATION_STYLE_ASSIGNMENT((#20));
#22=MECHANICAL_DESIGN_GEOMETRIC_PRESENTATION_REPRESENTATION('NONE',(#23),#8);
#23=STYLED_ITEM('',(#21),#13);
#24=ADVANCED_BREP_SHAPE_REPRESENTATION('NONE',(#13),#8);
#25=SHAPE_REPRESENTATION_RELATIONSHIP('','',#3,#24);
#26=GEOMETRIC_CURVE_SET('',(#77));
#27=GEOMETRICALLY_BOUNDED_WIREFRAME_SHAPE_REPRESENTATION('NONE',(#26),#8);
#28=SHAPE_REPRESENTATION_RELATIONSHIP('','',#3,#27);
#29=PRODUCT_DEFINITION_SHAPE('NONE','NONE',#1);
#30=MECHANICAL_CONTEXT('NONE',#35,'mechanical');
#31=PRODUCT_DEFINITION_FORMATION_WITH_SPECIFIED_SOURCE('ANY','UNSPECIFIED',#32,.NOT_KNOWN.);
#32=PRODUCT('6_WRIST3','6_WRIST3','NONE',(#30));
#33=PRODUCT_RELATED_PRODUCT_CATEGORY('detail','',(#32));
#34=DESIGN_CONTEXT('detailed design',#35,'design');
#35=APPLICATION_CONTEXT('configuration controlled 3d designs of mechanical parts and assemblies');
#36=APPLICATION_PROTOCOL_DEFINITION('international standard','config_control_design',
1994,#35);
#37=CC_DESIGN_DATE_AND_TIME_ASSIGNMENT(#38,#42,(#1));
#38=DATE_AND_TIME(#39,#40);
#39=CALENDAR_DATE(0,1,1);
#40=LOCAL_TIME(0,0,0.,#41);
#41=COORDINATED_UNIVERSAL_TIME_OFFSET(0,0,.AHEAD.);
#42=DATE_TIME_ROLE('creation_date');
#43=CC_DESIGN_APPROVAL(#44,(#1));
#44=APPROVAL(#45,'UNSPECIFIED');
#45=APPROVAL_STATUS('not_yet_approved');
#46=APPROVAL_DATE_TIME(#47,#44);
#47=DATE_AND_TIME(#48,#49);
#48=CALENDAR_DATE(0,1,1);
#49=LOCAL_TIME(0,0,0.,#50);
#50=COORDINATED_UNIVERSAL_TIME_OFFSET(0,0,.AHEAD.);
#51=ADVANCED_FACE('',(#78,#80),#82,.T.);
#52=ADVANCED_FACE('',(#87),#89,.T.);
#53=ADVANCED_FACE('',(#94,#96),#98,.T.);
#54=ADVANCED_FACE('',(#103,#105),#107,.F.);
#55=ADVANCED_FACE('',(#112,#114),#116,.F.);
#56=ADVANCED_FACE('',(#121,#123),#125,.F.);
#57=ADVANCED_FACE('',(#130,#132),#134,.F.);
#58=ADVANCED_FACE('',(#139,#141),#143,.F.);
#59=ADVANCED_FACE('',(#148,#150),#152,.F.);
#60=ADVANCED_FACE('',(#157,#159),#161,.F.);
#61=ADVANCED_FACE('',(#166,#168),#170,.F.);
#62=ADVANCED_FACE('',(#175,#177),#179,.F.);
#63=ADVANCED_FACE('',(#184,#186),#188,.F.);
#64=ADVANCED_FACE('',(#193),#195,.T.);
#65=ADVANCED_FACE('',(#200),#202,.T.);
#66=ADVANCED_FACE('',(#207),#209,.T.);
#67=ADVANCED_FACE('',(#214,#216,#218,#220,#222,#224,#226,#228,#230,#232),#234,.F.);
#68=ADVANCED_FACE('',(#239),#241,.F.);
#69=ADVANCED_FACE('',(#246),#248,.F.);
#70=ADVANCED_FACE('',(#253),#255,.F.);
#71=ADVANCED_FACE('',(#260),#262,.F.);
#72=ADVANCED_FACE('',(#267),#269,.F.);
#73=ADVANCED_FACE('',(#274),#276,.F.);
#74=ADVANCED_FACE('',(#281),#283,.F.);
#75=ADVANCED_FACE('',(#288),#290,.F.);
#76=ADVANCED_FACE('',(#295),#297,.F.);
#77=CARTESIAN_POINT('',(0.,0.,0.));
#78=FACE_BOUND('',#79,.T.);
#79=EDGE_LOOP('',(#302,#303,#304,#305,#306));
#80=FACE_OUTER_BOUND('',#81,.T.);
#81=EDGE_LOOP('',(#307));
#82=CYLINDRICAL_SURFACE('',#83,19.9999396310999);
#83=AXIS2_PLACEMENT_3D('',#84,#85,#86);
#84=CARTESIAN_POINT('',(0.,-1.38777877573889E-17,13.2));
#85=DIRECTION('',(0.,0.,1.));
#86=DIRECTION('',(-1.,0.,0.));
#87=FACE_BOUND('',#88,.T.);
#88=EDGE_LOOP('',(#308,#309,#310,#311));
#89=CONICAL_SURFACE('',#90,19.7499698451737,0.785398162499998);
#90=AXIS2_PLACEMENT_3D('',#91,#92,#93);
#91=CARTESIAN_POINT('',(0.,7.35522753814165E-16,3.25003021362492));
#92=DIRECTION('',(0.,0.,1.));
#93=DIRECTION('',(-1.,0.,0.));
#94=FACE_OUTER_BOUND('',#95,.T.);
#95=EDGE_LOOP('',(#312));
#96=FACE_BOUND('',#97,.T.);
#97=EDGE_LOOP('',(#313,#314,#315));
#98=CONICAL_SURFACE('',#99,19.7499396313245,0.785398162500142);
#99=AXIS2_PLACEMENT_3D('',#100,#101,#102);
#100=CARTESIAN_POINT('',(6.41072141227704E-16,1.00106352917025E-15,0.249999999775608));
#101=DIRECTION('',(-2.5642885625987E-15,-1.06216310046662E-15,1.));
#102=DIRECTION('',(-1.,2.72369269014091E-30,-2.5642885625987E-15));
#103=FACE_OUTER_BOUND('',#104,.T.);
#104=EDGE_LOOP('',(#316));
#105=FACE_OUTER_BOUND('',#106,.T.);
#106=EDGE_LOOP('',(#317));
#107=CYLINDRICAL_SURFACE('',#108,2.49999999999995);
#108=AXIS2_PLACEMENT_3D('',#109,#110,#111);
#109=CARTESIAN_POINT('',(11.13693180369,-11.1369318036882,0.));
#110=DIRECTION('',(0.,0.,1.));
#111=DIRECTION('',(-1.,0.,0.));
#112=FACE_OUTER_BOUND('',#113,.T.);
#113=EDGE_LOOP('',(#318));
#114=FACE_OUTER_BOUND('',#115,.T.);
#115=EDGE_LOOP('',(#319));
#116=CYLINDRICAL_SURFACE('',#117,2.49999999999995);
#117=AXIS2_PLACEMENT_3D('',#118,#119,#120);
#118=CARTESIAN_POINT('',(-11.13693180369,-11.1369318036882,0.));
#119=DIRECTION('',(0.,0.,1.));
#120=DIRECTION('',(-1.,0.,0.));
#121=FACE_OUTER_BOUND('',#122,.T.);
#122=EDGE_LOOP('',(#320));
#123=FACE_OUTER_BOUND('',#124,.T.);
#124=EDGE_LOOP('',(#321));
#125=CYLINDRICAL_SURFACE('',#126,2.49999999999995);
#126=AXIS2_PLACEMENT_3D('',#127,#128,#129);
#127=CARTESIAN_POINT('',(15.75,3.03437830418367E-14,0.));
#128=DIRECTION('',(0.,0.,1.));
#129=DIRECTION('',(-1.,0.,0.));
#130=FACE_OUTER_BOUND('',#131,.T.);
#131=EDGE_LOOP('',(#322));
#132=FACE_OUTER_BOUND('',#133,.T.);
#133=EDGE_LOOP('',(#323));
#134=CYLINDRICAL_SURFACE('',#135,2.49999999999995);
#135=AXIS2_PLACEMENT_3D('',#136,#137,#138);
#136=CARTESIAN_POINT('',(11.13693180369,11.1369318036881,0.));
#137=DIRECTION('',(0.,0.,1.));
#138=DIRECTION('',(-1.,0.,0.));
#139=FACE_OUTER_BOUND('',#140,.T.);
#140=EDGE_LOOP('',(#324));
#141=FACE_OUTER_BOUND('',#142,.T.);
#142=EDGE_LOOP('',(#325));
#143=CYLINDRICAL_SURFACE('',#144,2.49999999999995);
#144=AXIS2_PLACEMENT_3D('',#145,#146,#147);
#145=CARTESIAN_POINT('',(0.,15.75,0.));
#146=DIRECTION('',(0.,0.,1.));
#147=DIRECTION('',(-1.,0.,0.));
#148=FACE_OUTER_BOUND('',#149,.T.);
#149=EDGE_LOOP('',(#326));
#150=FACE_OUTER_BOUND('',#151,.T.);
#151=EDGE_LOOP('',(#327));
#152=CYLINDRICAL_SURFACE('',#153,2.49999999999995);
#153=AXIS2_PLACEMENT_3D('',#154,#155,#156);
#154=CARTESIAN_POINT('',(-11.13693180369,11.1369318036881,0.));
#155=DIRECTION('',(0.,0.,1.));
#156=DIRECTION('',(-1.,0.,0.));
#157=FACE_OUTER_BOUND('',#158,.T.);
#158=EDGE_LOOP('',(#328));
#159=FACE_BOUND('',#160,.T.);
#160=EDGE_LOOP('',(#329,#330));
#161=CONICAL_SURFACE('',#162,10.2500000002238,0.785398162500003);
#162=AXIS2_PLACEMENT_3D('',#163,#164,#165);
#163=CARTESIAN_POINT('',(0.,-1.31838984174239E-16,0.25000000022478));
#164=DIRECTION('',(0.,0.,-1.));
#165=DIRECTION('',(-1.,-1.22464679914735E-16,0.));
#166=FACE_OUTER_BOUND('',#167,.T.);
#167=EDGE_LOOP('',(#331));
#168=FACE_OUTER_BOUND('',#169,.T.);
#169=EDGE_LOOP('',(#332));
#170=CYLINDRICAL_SURFACE('',#171,2.49999999999995);
#171=AXIS2_PLACEMENT_3D('',#172,#173,#174);
#172=CARTESIAN_POINT('',(0.,-15.75,0.));
#173=DIRECTION('',(0.,0.,1.));
#174=DIRECTION('',(-1.,0.,0.));
#175=FACE_OUTER_BOUND('',#176,.T.);
#176=EDGE_LOOP('',(#333));
#177=FACE_OUTER_BOUND('',#178,.T.);
#178=EDGE_LOOP('',(#334));
#179=CYLINDRICAL_SURFACE('',#180,2.49999999999995);
#180=AXIS2_PLACEMENT_3D('',#181,#182,#183);
#181=CARTESIAN_POINT('',(-15.75,-1.17232612506009E-14,0.));
#182=DIRECTION('',(0.,0.,1.));
#183=DIRECTION('',(-1.,0.,0.));
#184=FACE_BOUND('',#185,.T.);
#185=EDGE_LOOP('',(#335,#336));
#186=FACE_OUTER_BOUND('',#187,.T.);
#187=EDGE_LOOP('',(#337));
#188=CYLINDRICAL_SURFACE('',#189,10.);
#189=AXIS2_PLACEMENT_3D('',#190,#191,#192);
#190=CARTESIAN_POINT('',(0.,-1.38777877573889E-17,13.2));
#191=DIRECTION('',(0.,0.,1.));
#192=DIRECTION('',(-1.,0.,0.));
#193=FACE_BOUND('',#194,.T.);
#194=EDGE_LOOP('',(#338,#339,#340,#341));
#195=PLANE('',#196);
#196=AXIS2_PLACEMENT_3D('',#197,#198,#199);
#197=CARTESIAN_POINT('',(-19.5,1.28785870856518E-14,-2.79999999999995));
#198=DIRECTION('',(-0.707106781186547,0.707106781186548,0.));
#199=DIRECTION('',(0.707106781186548,0.707106781186547,0.));
#200=FACE_BOUND('',#201,.T.);
#201=EDGE_LOOP('',(#342,#343,#344,#345));
#202=PLANE('',#203);
#203=AXIS2_PLACEMENT_3D('',#204,#205,#206);
#204=CARTESIAN_POINT('',(-22.5,3.00000000000001,-2.79999999999995));
#205=DIRECTION('',(-0.707106781186548,-0.707106781186548,0.));
#206=DIRECTION('',(-0.707106781186548,0.707106781186548,0.));
#207=FACE_BOUND('',#208,.T.);
#208=EDGE_LOOP('',(#346));
#209=PLANE('',#210);
#210=AXIS2_PLACEMENT_3D('',#211,#212,#213);
#211=CARTESIAN_POINT('',(0.,1.28785870856518E-14,13.5000000000001));
#212=DIRECTION('',(0.,0.,1.));
#213=DIRECTION('',(-1.,0.,0.));
#214=FACE_BOUND('',#215,.T.);
#215=EDGE_LOOP('',(#347));
#216=FACE_BOUND('',#217,.T.);
#217=EDGE_LOOP('',(#348));
#218=FACE_BOUND('',#219,.T.);
#219=EDGE_LOOP('',(#349));
#220=FACE_BOUND('',#221,.T.);
#221=EDGE_LOOP('',(#350));
#222=FACE_BOUND('',#223,.T.);
#223=EDGE_LOOP('',(#351));
#224=FACE_BOUND('',#225,.T.);
#225=EDGE_LOOP('',(#352));
#226=FACE_BOUND('',#227,.T.);
#227=EDGE_LOOP('',(#353));
#228=FACE_BOUND('',#229,.T.);
#229=EDGE_LOOP('',(#354));
#230=FACE_BOUND('',#231,.T.);
#231=EDGE_LOOP('',(#355));
#232=FACE_BOUND('',#233,.T.);
#233=EDGE_LOOP('',(#356));
#234=PLANE('',#235);
#235=AXIS2_PLACEMENT_3D('',#236,#237,#238);
#236=CARTESIAN_POINT('',(9.23879532511,3.82683432365089,0.));
#237=DIRECTION('',(0.,0.,1.));
#238=DIRECTION('',(-1.,0.,0.));
#239=FACE_BOUND('',#240,.T.);
#240=EDGE_LOOP('',(#357));
#241=PLANE('',#242);
#242=AXIS2_PLACEMENT_3D('',#243,#244,#245);
#243=CARTESIAN_POINT('',(11.13693180369,-11.1369318036882,7.00000000000011));
#244=DIRECTION('',(0.,0.,1.));
#245=DIRECTION('',(-1.,0.,0.));
#246=FACE_BOUND('',#247,.T.);
#247=EDGE_LOOP('',(#358));
#248=PLANE('',#249);
#249=AXIS2_PLACEMENT_3D('',#250,#251,#252);
#250=CARTESIAN_POINT('',(-11.13693180369,-11.1369318036882,7.00000000000011));
#251=DIRECTION('',(0.,0.,1.));
#252=DIRECTION('',(-1.,0.,0.));
#253=FACE_BOUND('',#254,.T.);
#254=EDGE_LOOP('',(#359));
#255=PLANE('',#256);
#256=AXIS2_PLACEMENT_3D('',#257,#258,#259);
#257=CARTESIAN_POINT('',(15.75,1.28785870856518E-14,7.00000000000011));
#258=DIRECTION('',(0.,0.,1.));
#259=DIRECTION('',(-1.,0.,0.));
#260=FACE_BOUND('',#261,.T.);
#261=EDGE_LOOP('',(#360));
#262=PLANE('',#263);
#263=AXIS2_PLACEMENT_3D('',#264,#265,#266);
#264=CARTESIAN_POINT('',(11.13693180369,11.1369318036881,7.00000000000011));
#265=DIRECTION('',(0.,0.,1.));
#266=DIRECTION('',(-1.,0.,0.));
#267=FACE_BOUND('',#268,.T.);
#268=EDGE_LOOP('',(#361));
#269=PLANE('',#270);
#270=AXIS2_PLACEMENT_3D('',#271,#272,#273);
#271=CARTESIAN_POINT('',(0.,15.75,7.00000000000011));
#272=DIRECTION('',(0.,0.,1.));
#273=DIRECTION('',(-1.,0.,0.));
#274=FACE_BOUND('',#275,.T.);
#275=EDGE_LOOP('',(#362));
#276=PLANE('',#277);
#277=AXIS2_PLACEMENT_3D('',#278,#279,#280);
#278=CARTESIAN_POINT('',(-11.13693180369,11.1369318036881,7.00000000000011));
#279=DIRECTION('',(0.,0.,1.));
#280=DIRECTION('',(-1.,0.,0.));
#281=FACE_BOUND('',#282,.T.);
#282=EDGE_LOOP('',(#363));
#283=PLANE('',#284);
#284=AXIS2_PLACEMENT_3D('',#285,#286,#287);
#285=CARTESIAN_POINT('',(0.,-15.75,7.00000000000011));
#286=DIRECTION('',(0.,0.,1.));
#287=DIRECTION('',(-1.,0.,0.));
#288=FACE_BOUND('',#289,.T.);
#289=EDGE_LOOP('',(#364));
#290=PLANE('',#291);
#291=AXIS2_PLACEMENT_3D('',#292,#293,#294);
#292=CARTESIAN_POINT('',(-15.75,1.28785870856518E-14,5.00000000000011));
#293=DIRECTION('',(0.,0.,1.));
#294=DIRECTION('',(-1.,0.,0.));
#295=FACE_BOUND('',#296,.T.);
#296=EDGE_LOOP('',(#365));
#297=PLANE('',#298);
#298=AXIS2_PLACEMENT_3D('',#299,#300,#301);
#299=CARTESIAN_POINT('',(4.61939766256,1.91341716182544,6.00000000000011));
#300=DIRECTION('',(0.,0.,1.));
#301=DIRECTION('',(-1.,0.,0.));
#302=ORIENTED_EDGE('',*,*,#366,.T.);
#303=ORIENTED_EDGE('',*,*,#367,.T.);
#304=ORIENTED_EDGE('',*,*,#368,.T.);
#305=ORIENTED_EDGE('',*,*,#369,.T.);
#306=ORIENTED_EDGE('',*,*,#370,.T.);
#307=ORIENTED_EDGE('',*,*,#371,.T.);
#308=ORIENTED_EDGE('',*,*,#372,.F.);
#309=ORIENTED_EDGE('',*,*,#367,.F.);
#310=ORIENTED_EDGE('',*,*,#366,.F.);
#311=ORIENTED_EDGE('',*,*,#373,.T.);
#312=ORIENTED_EDGE('',*,*,#374,.T.);
#313=ORIENTED_EDGE('',*,*,#375,.F.);
#314=ORIENTED_EDGE('',*,*,#369,.F.);
#315=ORIENTED_EDGE('',*,*,#376,.F.);
#316=ORIENTED_EDGE('',*,*,#377,.F.);
#317=ORIENTED_EDGE('',*,*,#378,.T.);
#318=ORIENTED_EDGE('',*,*,#379,.F.);
#319=ORIENTED_EDGE('',*,*,#380,.T.);
#320=ORIENTED_EDGE('',*,*,#381,.F.);
#321=ORIENTED_EDGE('',*,*,#382,.T.);
#322=ORIENTED_EDGE('',*,*,#383,.F.);
#323=ORIENTED_EDGE('',*,*,#384,.T.);
#324=ORIENTED_EDGE('',*,*,#385,.F.);
#325=ORIENTED_EDGE('',*,*,#386,.T.);
#326=ORIENTED_EDGE('',*,*,#387,.F.);
#327=ORIENTED_EDGE('',*,*,#388,.T.);
#328=ORIENTED_EDGE('',*,*,#389,.T.);
#329=ORIENTED_EDGE('',*,*,#390,.F.);
#330=ORIENTED_EDGE('',*,*,#391,.F.);
#331=ORIENTED_EDGE('',*,*,#392,.F.);
#332=ORIENTED_EDGE('',*,*,#393,.T.);
#333=ORIENTED_EDGE('',*,*,#394,.F.);
#334=ORIENTED_EDGE('',*,*,#395,.T.);
#335=ORIENTED_EDGE('',*,*,#391,.T.);
#336=ORIENTED_EDGE('',*,*,#390,.T.);
#337=ORIENTED_EDGE('',*,*,#396,.F.);
#338=ORIENTED_EDGE('',*,*,#397,.T.);
#339=ORIENTED_EDGE('',*,*,#376,.T.);
#340=ORIENTED_EDGE('',*,*,#368,.F.);
#341=ORIENTED_EDGE('',*,*,#372,.T.);
#342=ORIENTED_EDGE('',*,*,#397,.F.);
#343=ORIENTED_EDGE('',*,*,#373,.F.);
#344=ORIENTED_EDGE('',*,*,#370,.F.);
#345=ORIENTED_EDGE('',*,*,#375,.T.);
#346=ORIENTED_EDGE('',*,*,#371,.F.);
#347=ORIENTED_EDGE('',*,*,#374,.F.);
#348=ORIENTED_EDGE('',*,*,#378,.F.);
#349=ORIENTED_EDGE('',*,*,#380,.F.);
#350=ORIENTED_EDGE('',*,*,#382,.F.);
#351=ORIENTED_EDGE('',*,*,#384,.F.);
#352=ORIENTED_EDGE('',*,*,#386,.F.);
#353=ORIENTED_EDGE('',*,*,#388,.F.);
#354=ORIENTED_EDGE('',*,*,#389,.F.);
#355=ORIENTED_EDGE('',*,*,#393,.F.);
#356=ORIENTED_EDGE('',*,*,#395,.F.);
#357=ORIENTED_EDGE('',*,*,#377,.T.);
#358=ORIENTED_EDGE('',*,*,#379,.T.);
#359=ORIENTED_EDGE('',*,*,#381,.T.);
#360=ORIENTED_EDGE('',*,*,#383,.T.);
#361=ORIENTED_EDGE('',*,*,#385,.T.);
#362=ORIENTED_EDGE('',*,*,#387,.T.);
#363=ORIENTED_EDGE('',*,*,#392,.T.);
#364=ORIENTED_EDGE('',*,*,#394,.T.);
#365=ORIENTED_EDGE('',*,*,#396,.T.);
#366=EDGE_CURVE('',#398,#399,#400,.T.);
#367=EDGE_CURVE('',#399,#401,#402,.T.);
#368=EDGE_CURVE('',#401,#403,#404,.T.);
#369=EDGE_CURVE('',#403,#405,#406,.T.);
#370=EDGE_CURVE('',#405,#398,#407,.T.);
#371=EDGE_CURVE('',#408,#408,#409,.T.);
#372=EDGE_CURVE('',#401,#410,#411,.T.);
#373=EDGE_CURVE('',#398,#410,#412,.T.);
#374=EDGE_CURVE('',#413,#413,#414,.T.);
#375=EDGE_CURVE('',#405,#415,#416,.T.);
#376=EDGE_CURVE('',#415,#403,#417,.T.);
#377=EDGE_CURVE('',#418,#418,#419,.T.);
#378=EDGE_CURVE('',#420,#420,#421,.T.);
#379=EDGE_CURVE('',#422,#422,#423,.T.);
#380=EDGE_CURVE('',#424,#424,#425,.T.);
#381=EDGE_CURVE('',#426,#426,#427,.T.);
#382=EDGE_CURVE('',#428,#428,#429,.T.);
#383=EDGE_CURVE('',#430,#430,#431,.T.);
#384=EDGE_CURVE('',#432,#432,#433,.T.);
#385=EDGE_CURVE('',#434,#434,#435,.T.);
#386=EDGE_CURVE('',#436,#436,#437,.T.);
#387=EDGE_CURVE('',#438,#438,#439,.T.);
#388=EDGE_CURVE('',#440,#440,#441,.T.);
#389=EDGE_CURVE('',#442,#442,#443,.T.);
#390=EDGE_CURVE('',#444,#445,#446,.T.);
#391=EDGE_CURVE('',#445,#444,#447,.T.);
#392=EDGE_CURVE('',#448,#448,#449,.T.);
#393=EDGE_CURVE('',#450,#450,#451,.T.);
#394=EDGE_CURVE('',#452,#452,#453,.T.);
#395=EDGE_CURVE('',#454,#454,#455,.T.);
#396=EDGE_CURVE('',#456,#456,#457,.T.);
#397=EDGE_CURVE('',#410,#415,#458,.T.);
#398=VERTEX_POINT('',#459);
#399=VERTEX_POINT('',#460);
#400=CIRCLE('',#461,19.9999396310999);
#401=VERTEX_POINT('',#465);
#402=CIRCLE('',#466,19.9999396310999);
#403=VERTEX_POINT('',#470);
#404=LINE('',#471,#472);
#405=VERTEX_POINT('',#474);
#406=B_SPLINE_CURVE_WITH_KNOTS('',3,
(#475,#476,#477,#478,#479,#480,#481,#482,#483,#484,#485,#486,#487,#488,#489,#490,
#491,#492,#493,#494,#495,#496,#497,#498,#499,#500,#501,#502,#503,#504,#505,#506,
#507,#508,#509,#510,#511,#512,#513,#514,#515,#516,#517,#518,#519,#520,#521,#522,
#523,#524,#525,#526,#527,#528,#529,#530,#531,#532,#533,#534,#535,#536,#537,#538,
#539,#540,#541,#542,#543,#544,#545,#546,#547,#548,#549,#550,#551,#552,#553,#554,
#555,#556,#557,#558,#559,#560,#561,#562,#563,#564,#565,#566,#567,#568,#569,#570,
#571,#572,#573,#574,#575,#576,#577,#578,#579),
.UNSPECIFIED.,.F.,.F.,
(4,1,1,1,1,1,1,1,1,1,1,1,1,1,1,1,1,1,1,1,1,1,1,1,1,1,1,1,1,1,1,1,1,1,1,1,1,1,1,1,
1,1,1,1,1,1,1,1,1,1,3,1,1,1,1,1,1,1,1,1,1,1,1,1,1,1,1,1,1,1,1,1,1,1,1,1,1,1,1,1,
1,1,1,1,1,1,1,1,1,1,1,1,1,1,1,1,1,1,1,1,4),
(0.,0.0100808325107601,0.0201616650215203,0.0302424975322804,0.0403233300430406,
0.0504041625538007,0.0604849950645608,0.070565827575321,0.0806466600860811,0.0907274925968413,
0.100808325107601,0.110889157618362,0.120969990129122,0.131050822639882,0.141131655150642,
0.151212487661402,0.161293320172162,0.171374152682922,0.181454985193683,0.191535817704443,
0.201616650215203,0.211697482725963,0.221778315236723,0.231859147747483,0.241939980258243,
0.252020812769004,0.262101645279764,0.272182477790524,0.282263310301284,0.292344142812044,
0.302424975322804,0.312505807833564,0.322586640344325,0.332667472855085,0.342748305365845,
0.352829137876605,0.362909970387365,0.372990802898125,0.383071635408886,0.393152467919646,
0.403233300430406,0.413314132941166,0.423394965451926,0.433475797962686,0.443556630473447,
0.453637462984207,0.463718295494967,0.473799128005727,0.483879960516487,0.493960793027247,
0.499999999998272,0.510080832509102,0.520161665019932,0.530242497530762,0.540323330041591,
0.550404162552421,0.560484995063251,0.570565827574081,0.580646660084911,0.590727492595741,
0.60080832510657,0.6108891576174,0.62096999012823,0.63105082263906,0.641131655149889,
0.651212487660719,0.661293320171549,0.671374152682379,0.681454985193209,0.691535817704039,
0.701616650214868,0.711697482725698,0.721778315236528,0.731859147747358,0.741939980258188,
0.752020812769017,0.762101645279847,0.772182477790677,0.782263310301507,0.792344142812337,
0.802424975323166,0.812505807833996,0.822586640344826,0.832667472855656,0.842748305366486,
0.852829137877315,0.862909970388145,0.872990802898975,0.883071635409805,0.893152467920635,
0.903233300431465,0.913314132942295,0.923394965453124,0.933475797963954,0.943556630474784,
0.953637462985614,0.963718295496444,0.973799128007274,0.983879960518103,0.993960793028933,
1.),
.UNSPECIFIED.);
#407=LINE('',#580,#581);
#408=VERTEX_POINT('',#583);
#409=CIRCLE('',#584,19.9999396310999);
#410=VERTEX_POINT('',#588);
#411=B_SPLINE_CURVE_WITH_KNOTS('',3,
(#589,#590,#591,#592,#593,#594,#595,#596,#597,#598,#599,#600,#601,#602,#603,#604,
#605,#606,#607),
.UNSPECIFIED.,.F.,.F.,
(4,1,1,1,1,1,1,1,1,1,1,1,1,1,1,1,4),
(0.,0.0621426918861224,0.124436417219629,0.186860550597031,0.249425900674902,0.312051580858803,
0.374706584712651,0.437337734084915,0.499881948194905,0.562334438480613,0.624699977315723,
0.687041502672993,0.749412714022423,0.811844825147429,0.874421281499482,0.937132178459439,
1.),
.UNSPECIFIED.);
#412=B_SPLINE_CURVE_WITH_KNOTS('',3,
(#608,#609,#610,#611,#612,#613,#614,#615,#616,#617,#618,#619,#620,#621,#622,#623,
#624,#625,#626),
.UNSPECIFIED.,.F.,.F.,
(4,1,1,1,1,1,1,1,1,1,1,1,1,1,1,1,4),
(0.,0.0622079768878833,0.124539556058365,0.186977750139539,0.249531256648941,0.312133934331611,
0.374760498789665,0.437367599955733,0.49990390528288,0.562365544167634,0.624756433882049,
0.687127827212063,0.749523378398706,0.811968448779889,0.874530651713632,0.937201808156503,
1.),
.UNSPECIFIED.);
#413=VERTEX_POINT('',#627);
#414=CIRCLE('',#628,19.4999396315485);
#415=VERTEX_POINT('',#632);
#416=B_SPLINE_CURVE_WITH_KNOTS('',3,
(#633,#634,#635,#636,#637,#638,#639,#640,#641,#642,#643,#644,#645,#646,#647,#648,
#649,#650,#651),
.UNSPECIFIED.,.F.,.F.,
(4,1,1,1,1,1,1,1,1,1,1,1,1,1,1,1,4),
(0.,0.0621426918402257,0.124436417147226,0.186860550514858,0.249425900601166,0.312051580801315,
0.374706584675109,0.437337734064162,0.499881948179516,0.562334438458611,0.624699977275852,
0.687041502612289,0.749412713944879,0.811844825061098,0.874421281423419,0.93713217841126,
1.),
.UNSPECIFIED.);
#417=B_SPLINE_CURVE_WITH_KNOTS('',3,
(#652,#653,#654,#655,#656,#657,#658,#659,#660,#661,#662,#663,#664,#665,#666,#667,
#668,#669,#670),
.UNSPECIFIED.,.F.,.F.,
(4,1,1,1,1,1,1,1,1,1,1,1,1,1,1,1,4),
(0.,0.0628678215891376,0.125578718577207,0.188155174939606,0.250587286055755,0.312958497388212,
0.375300022724476,0.43766556154157,0.500118051820611,0.562662265936005,0.625293415325202,
0.687948419199163,0.750574099399444,0.81313944948582,0.875563582853358,0.937857308160136,
1.),
.UNSPECIFIED.);
#418=VERTEX_POINT('',#671);
#419=CIRCLE('',#672,2.49999999999995);
#420=VERTEX_POINT('',#676);
#421=CIRCLE('',#677,2.49999999999995);
#422=VERTEX_POINT('',#681);
#423=CIRCLE('',#682,2.49999999999995);
#424=VERTEX_POINT('',#686);
#425=CIRCLE('',#687,2.49999999999995);
#426=VERTEX_POINT('',#691);
#427=CIRCLE('',#692,2.49999999999995);
#428=VERTEX_POINT('',#696);
#429=CIRCLE('',#697,2.49999999999995);
#430=VERTEX_POINT('',#701);
#431=CIRCLE('',#702,2.49999999999995);
#432=VERTEX_POINT('',#706);
#433=CIRCLE('',#707,2.49999999999995);
#434=VERTEX_POINT('',#711);
#435=CIRCLE('',#712,2.49999999999995);
#436=VERTEX_POINT('',#716);
#437=CIRCLE('',#717,2.49999999999995);
#438=VERTEX_POINT('',#721);
#439=CIRCLE('',#722,2.49999999999995);
#440=VERTEX_POINT('',#726);
#441=CIRCLE('',#727,2.49999999999995);
#442=VERTEX_POINT('',#731);
#443=CIRCLE('',#732,10.4999999999993);
#444=VERTEX_POINT('',#736);
#445=VERTEX_POINT('',#737);
#446=CIRCLE('',#738,10.);
#447=CIRCLE('',#742,10.);
#448=VERTEX_POINT('',#746);
#449=CIRCLE('',#747,2.49999999999995);
#450=VERTEX_POINT('',#751);
#451=CIRCLE('',#752,2.49999999999995);
#452=VERTEX_POINT('',#756);
#453=CIRCLE('',#757,2.49999999999995);
#454=VERTEX_POINT('',#761);
#455=CIRCLE('',#762,2.49999999999995);
#456=VERTEX_POINT('',#766);
#457=CIRCLE('',#767,10.);
#458=LINE('',#771,#772);
#459=CARTESIAN_POINT('',(-19.9938416926382,0.49384169263769,3.50000000000057));
#460=CARTESIAN_POINT('',(-19.9999396311,3.50163733308205E-15,3.50000000000011));
#461=AXIS2_PLACEMENT_3D('',#462,#463,#464);
#462=CARTESIAN_POINT('',(0.,-1.38777877573889E-17,3.50000000000011));
#463=DIRECTION('',(0.,0.,1.));
#464=DIRECTION('',(-0.999695102156567,0.0246921591638081,0.));
#465=CARTESIAN_POINT('',(-19.9938416926382,-0.493841692638273,3.50000000000011));
#466=AXIS2_PLACEMENT_3D('',#467,#468,#469);
#467=CARTESIAN_POINT('',(0.,-1.38777877573889E-17,3.50000000000011));
#468=DIRECTION('',(0.,0.,1.));
#469=DIRECTION('',(-1.,0.,0.));
#470=CARTESIAN_POINT('',(-19.9938416926382,-0.493841692638273,0.500000000000114));
#471=CARTESIAN_POINT('',(-19.9938416926377,-0.493841692637647,3.50000000000011));
#472=VECTOR('',#473,1.);
#473=DIRECTION('',(0.,0.,-1.));
#474=CARTESIAN_POINT('',(-19.9938416926382,0.493841692638277,0.500000000000114));
#475=CARTESIAN_POINT('',(-19.9938416926377,-0.493841692638266,0.499999999999968));
#476=CARTESIAN_POINT('',(-19.983521929132,-0.912660842322387,0.499999999999969));
#477=CARTESIAN_POINT('',(-19.936468343036,-1.74964019562695,0.499999999999969));
#478=CARTESIAN_POINT('',(-19.787252022864,-2.99820895088469,0.499999999999968));
#479=CARTESIAN_POINT('',(-19.5599010578048,-4.23493951657664,0.499999999999968));
#480=CARTESIAN_POINT('',(-19.2553365043382,-5.45495189127076,0.499999999999968));
#481=CARTESIAN_POINT('',(-18.8747544198066,-6.65342907828576,0.499999999999968));
#482=CARTESIAN_POINT('',(-18.4196589545027,-7.8256399001242,0.499999999999969));
#483=CARTESIAN_POINT('',(-17.8918462813883,-8.96695665856684,0.499999999999969));
#484=CARTESIAN_POINT('',(-17.2934002200779,-10.072873676572,0.49999999999997));
#485=CARTESIAN_POINT('',(-16.6266832828789,-11.1390250127198,0.499999999999971));
#486=CARTESIAN_POINT('',(-15.89432754299,-12.1612017166485,0.499999999999972));
#487=CARTESIAN_POINT('',(-15.0992241913755,-13.1353684398994,0.499999999999973));
#488=CARTESIAN_POINT('',(-14.2445121369196,-14.0576793680673,0.499999999999974));
#489=CARTESIAN_POINT('',(-13.3335656108944,-14.9244934029258,0.499999999999975));
#490=CARTESIAN_POINT('',(-12.3699808471783,-15.732388536853,0.499999999999978));
#491=CARTESIAN_POINT('',(-11.3575618847774,-16.4781753622025,0.499999999999978));
#492=CARTESIAN_POINT('',(-10.3003055503168,-17.1589096624513,0.499999999999978));
#493=CARTESIAN_POINT('',(-9.20238567935207,-17.7719040353729,0.49999999999998));
#494=CARTESIAN_POINT('',(-8.06813663891115,-18.3147385023622,0.499999999999984));
#495=CARTESIAN_POINT('',(-6.90203621628241,-18.785270062024,0.499999999999984));
#496=CARTESIAN_POINT('',(-5.70868794161076,-19.1816411503124,0.499999999999986));
#497=CARTESIAN_POINT('',(-4.49280291408566,-19.5022869738201,0.499999999999988));
#498=CARTESIAN_POINT('',(-3.25918120346807,-19.7459416872685,0.49999999999999));
#499=CARTESIAN_POINT('',(-2.01269290037977,-19.9116433908106,0.499999999999991));
#500=CARTESIAN_POINT('',(-0.758258890164053,-19.9987379274177,0.499999999999994));
#501=CARTESIAN_POINT('',(0.499168573780665,-20.0068814653608,0.499999999999995));
#502=CARTESIAN_POINT('',(1.7546254205022,-19.9360418555885,0.499999999999998));
#503=CARTESIAN_POINT('',(3.00315535864919,-19.7864987586452,0.5));
#504=CARTESIAN_POINT('',(4.23982944291331,-19.5588425406274,0.500000000000002));
#505=CARTESIAN_POINT('',(5.45976553251509,-19.2539719425372,0.500000000000004));
#506=CARTESIAN_POINT('',(6.65814756491443,-18.8730905322333,0.500000000000006));
#507=CARTESIAN_POINT('',(7.83024456865794,-18.4177019529868,0.500000000000009));
#508=CARTESIAN_POINT('',(8.97142934030347,-17.8896039873998,0.500000000000011));
#509=CARTESIAN_POINT('',(10.0771967116894,-17.2908814601213,0.500000000000013));
#510=CARTESIAN_POINT('',(11.1431813354336,-16.6238980073777,0.500000000000015));
#511=CARTESIAN_POINT('',(12.165174918447,-15.8912867458125,0.500000000000017));
#512=CARTESIAN_POINT('',(13.1391428354302,-15.095939877471,0.50000000000002));
#513=CARTESIAN_POINT('',(14.0612400567605,-14.2409972719672,0.500000000000021));
#514=CARTESIAN_POINT('',(14.927826327907,-13.3298340709104,0.500000000000024));
#515=CARTESIAN_POINT('',(15.7354805403826,-12.366047363522,0.500000000000026));
#516=CARTESIAN_POINT('',(16.481014237749,-11.3534419860585,0.500000000000028));
#517=CARTESIAN_POINT('',(17.1614842024177,-10.2960155010522,0.50000000000003));
#518=CARTESIAN_POINT('',(17.7742040770628,-9.19794241584851,0.500000000000031));
#519=CARTESIAN_POINT('',(18.31675496168,-8.06355770207862,0.500000000000033));
#520=CARTESIAN_POINT('',(18.7869949932961,-6.89733968359484,0.500000000000035));
#521=CARTESIAN_POINT('',(19.1830676882394,-5.70389235123112,0.500000000000036));
#522=CARTESIAN_POINT('',(19.5034096942838,-4.487927208507,0.500000000000038));
#523=CARTESIAN_POINT('',(19.7467553833442,-3.25424459193699,0.500000000000039));
#524=CARTESIAN_POINT('',(19.9121477412225,-2.00771501741787,0.500000000000041));
#525=CARTESIAN_POINT('',(19.9873238345536,-0.92090512018946,0.500000000000042));
#526=CARTESIAN_POINT('',(19.9999456891613,-0.250980822900709,0.500000000000043));
#527=CARTESIAN_POINT('',(19.9999396311,-2.08846372220775E-15,0.500000000000043));
#528=CARTESIAN_POINT('',(19.9999645631728,0.418946269871614,0.500000000000044));
#529=CARTESIAN_POINT('',(19.9735921510224,1.25683228461346,0.500000000000044));
#530=CARTESIAN_POINT('',(19.8552511850164,2.50870482707788,0.500000000000043));
#531=CARTESIAN_POINT('',(19.658507086747,3.75067210250274,0.500000000000043));
#532=CARTESIAN_POINT('',(19.3841601340938,4.9778328544847,0.500000000000043));
#533=CARTESIAN_POINT('',(19.033287077675,6.18534202179614,0.500000000000043));
#534=CARTESIAN_POINT('',(18.6072747861835,7.36843272874699,0.500000000000042));
#535=CARTESIAN_POINT('',(18.1078046170707,8.52243433670452,0.500000000000042));
#536=CARTESIAN_POINT('',(17.5368484997043,9.64279108839276,0.500000000000041));
#537=CARTESIAN_POINT('',(16.8966604215465,10.7250800380279,0.50000000000004));
#538=CARTESIAN_POINT('',(16.1897677252103,11.7650285269778,0.500000000000039));
#539=CARTESIAN_POINT('',(15.4189610786757,12.7585310474055,0.500000000000038));
#540=CARTESIAN_POINT('',(14.5872834723188,13.7016654510482,0.500000000000037));
#541=CARTESIAN_POINT('',(13.6980182020391,14.5907084327872,0.500000000000036));
#542=CARTESIAN_POINT('',(12.754675908474,15.4221502295839,0.500000000000035));
#543=CARTESIAN_POINT('',(11.7609807174252,16.1927084762988,0.500000000000034));
#544=CARTESIAN_POINT('',(10.7208555378309,16.899341163815,0.500000000000033));
#545=CARTESIAN_POINT('',(9.63840657488988,17.5392586482773,0.500000000000031));
#546=CARTESIAN_POINT('',(8.51790711959382,18.1099346640462,0.500000000000029));
#547=CARTESIAN_POINT('',(7.36378067863193,18.6091162968868,0.500000000000028));
#548=CARTESIAN_POINT('',(6.18058351127568,19.0348328780212,0.500000000000026));
#549=CARTESIAN_POINT('',(4.97298664218259,19.3854037639334,0.500000000000024));
#550=CARTESIAN_POINT('',(3.74575742112966,19.6594449712117,0.500000000000022));
#551=CARTESIAN_POINT('',(2.50374070247445,19.8558746402374,0.50000000000002));
#552=CARTESIAN_POINT('',(1.25183971864334,19.9739173061489,0.500000000000018));
#553=CARTESIAN_POINT('',(-0.00500327684426688,20.0131069602216,0.500000000000016));
#554=CARTESIAN_POINT('',(-1.26182652040033,19.9732888895761,0.500000000000014));
#555=CARTESIAN_POINT('',(-2.51366832641329,19.854620287954,0.500000000000012));
#556=CARTESIAN_POINT('',(-3.75558667498599,19.6575696351486,0.50000000000001));
#557=CARTESIAN_POINT('',(-4.98267872203737,19.3829148475405,0.500000000000008));
#558=CARTESIAN_POINT('',(-6.19010015474517,19.0317402070403,0.500000000000006));
#559=CARTESIAN_POINT('',(-7.37308431592011,18.6054320805614,0.500000000000003));
#560=CARTESIAN_POINT('',(-8.52696102181017,18.1056734469221,0.500000000000001));
#561=CARTESIAN_POINT('',(-9.64717499904777,17.5344372527834,0.499999999999999));
#562=CARTESIAN_POINT('',(-10.7293038679538,16.8939786238518,0.499999999999997));
#563=CARTESIAN_POINT('',(-11.7690756012035,16.1868259620966,0.499999999999994));
#564=CARTESIAN_POINT('',(-12.7623853889328,15.4157709641266,0.499999999999992));
#565=CARTESIAN_POINT('',(-13.7053118436999,14.5838576001331,0.49999999999999));
#566=CARTESIAN_POINT('',(-14.594132481346,13.6943700969077,0.499999999999988));
#567=CARTESIAN_POINT('',(-15.4253384165728,12.7508199723717,0.499999999999986));
#568=CARTESIAN_POINT('',(-16.1956482154731,11.7569321728214,0.499999999999984));
#569=CARTESIAN_POINT('',(-16.9020208493889,10.7166303675438,0.499999999999982));
#570=CARTESIAN_POINT('',(-17.541667702459,9.63402145912326,0.49999999999998));
#571=CARTESIAN_POINT('',(-18.1120635723869,8.51337936960372,0.499999999999979));
#572=CARTESIAN_POINT('',(-18.6109566697637,7.35912817018458,0.499999999999977));
#573=CARTESIAN_POINT('',(-19.0363773944808,6.17582460736275,0.499999999999975));
#574=CARTESIAN_POINT('',(-19.3866465337802,4.96814014558849,0.499999999999974));
#575=CARTESIAN_POINT('',(-19.6603803147908,3.74084240667383,0.499999999999972));
#576=CARTESIAN_POINT('',(-19.8565017515523,2.49877679075896,0.499999999999971));
#577=CARTESIAN_POINT('',(-19.9584906068179,1.41415451958631,0.49999999999997));
#578=CARTESIAN_POINT('',(-19.9876504904257,0.744746141613957,0.499999999999969));
#579=CARTESIAN_POINT('',(-19.9938416926377,0.493841692638262,0.499999999999969));
#580=CARTESIAN_POINT('',(-19.9938416926377,0.49384169263772,0.500000000000114));
#581=VECTOR('',#582,1.);
#582=DIRECTION('',(4.02640883597314E-14,-4.0190073491423E-14,1.));
#583=CARTESIAN_POINT('',(-19.9999396311,8.02550947321508E-16,13.5000000000002));
#584=AXIS2_PLACEMENT_3D('',#585,#586,#587);
#585=CARTESIAN_POINT('',(0.,-1.38777877573889E-17,13.5000000000001));
#586=DIRECTION('',(0.,0.,-1.));
#587=DIRECTION('',(1.,1.22464679914735E-16,0.));
#588=CARTESIAN_POINT('',(-19.5000000886464,8.60357549449952E-15,3.00006045709745));
#589=CARTESIAN_POINT('',(-19.9938416926381,-0.493841692638236,3.50000000000015));
#590=CARTESIAN_POINT('',(-19.9834826351153,-0.483482635115372,3.48938831336456));
#591=CARTESIAN_POINT('',(-19.9627554601045,-0.462755460104735,3.46817097985382));
#592=CARTESIAN_POINT('',(-19.931678859323,-0.431678859322051,3.43640558492176));
#593=CARTESIAN_POINT('',(-19.9005806478263,-0.400580647829968,3.40466449451534));
#594=CARTESIAN_POINT('',(-19.8694761875099,-0.369476187496076,3.37296368033705));
#595=CARTESIAN_POINT('',(-19.838382460869,-0.338382460920694,3.34132066915308));
#596=CARTESIAN_POINT('',(-19.8073269025428,-0.307326902349873,3.30976349037962));
#597=CARTESIAN_POINT('',(-19.7763338469965,-0.276333847715695,3.27831687138054));
#598=CARTESIAN_POINT('',(-19.7454231518159,-0.245423149137751,3.24700084850508));
#599=CARTESIAN_POINT('',(-19.7146050177969,-0.214605018512988,3.21582557196937));
#600=CARTESIAN_POINT('',(-19.6838689058444,-0.183868905652723,3.18478019544055));
#601=CARTESIAN_POINT('',(-19.6531947588717,-0.153194758923105,3.15384434588701));
#602=CARTESIAN_POINT('',(-19.6225583346155,-0.122558334601674,3.12299357092517));
#603=CARTESIAN_POINT('',(-19.5919321875453,-0.0919321875490208,3.09220034069727));
#604=CARTESIAN_POINT('',(-19.5612994276059,-0.0612994276049027,3.06144789264674));
#605=CARTESIAN_POINT('',(-19.5306446982412,-0.0306446982413927,3.0307211087639));
#606=CARTESIAN_POINT('',(-19.5102179555918,-0.0102179555918352,3.01027832358378));
#607=CARTESIAN_POINT('',(-19.5000000592471,-5.92470836795454E-8,3.00006042724966));
#608=CARTESIAN_POINT('',(-19.9938416926381,0.493841692637812,3.50000000000049));
#609=CARTESIAN_POINT('',(-19.9834996342471,0.483499634246988,3.48940572709085));
#610=CARTESIAN_POINT('',(-19.962807671223,0.462807671223216,3.46822441061033));
#611=CARTESIAN_POINT('',(-19.9317799084892,0.431779908489426,3.43650882374765));
#612=CARTESIAN_POINT('',(-19.9007330960246,0.400733096024661,3.40482000674762));
#613=CARTESIAN_POINT('',(-19.8696797472688,0.369679747268463,3.37317101638547));
#614=CARTESIAN_POINT('',(-19.8386336841701,0.338633684168935,3.34157616477459));
#615=CARTESIAN_POINT('',(-19.8076172438772,0.30761724387508,3.31005832085849));
#616=CARTESIAN_POINT('',(-19.7766502175577,0.276650217554187,3.27863764374426));
#617=CARTESIAN_POINT('',(-19.7457487674831,0.245748767477987,3.24733048823941));
#618=CARTESIAN_POINT('',(-19.7149212022762,0.214921202269178,3.21614517281432));
#619=CARTESIAN_POINT('',(-19.6841589444879,0.18415894447873,3.185072915427));
#620=CARTESIAN_POINT('',(-19.6534456657016,0.153445665690004,3.15409717984489));
#621=CARTESIAN_POINT('',(-19.6227616132912,0.122761613276849,3.12319809026968));
#622=CARTESIAN_POINT('',(-19.5920844512262,0.0920844512088677,3.09235329093785));
#623=CARTESIAN_POINT('',(-19.5614004295205,0.0614004294997922,3.06154918491228));
#624=CARTESIAN_POINT('',(-19.5306970569997,0.0306970569753584,3.03077352490968));
#625=CARTESIAN_POINT('',(-19.510235015934,0.0102350159071143,3.01029538394807));
#626=CARTESIAN_POINT('',(-19.5000000592613,5.92330037796351E-8,3.00006042724965));
#627=CARTESIAN_POINT('',(-19.4999396315484,3.69469154114835E-15,-2.99337443721015E-10));
#628=AXIS2_PLACEMENT_3D('',#629,#630,#631);
#629=CARTESIAN_POINT('',(0.,1.33226762955019E-15,0.));
#630=DIRECTION('',(0.,0.,1.));
#631=DIRECTION('',(-1.,5.47460077337631E-30,0.));
#632=CARTESIAN_POINT('',(-19.5000000002244,-2.26937135556968E-16,6.03686756903698E-5));
#633=CARTESIAN_POINT('',(-19.9938416926382,0.493841692638252,0.50000000000018));
#634=CARTESIAN_POINT('',(-19.9834826338695,0.483482633869582,0.489388312088277));
#635=CARTESIAN_POINT('',(-19.9627554563648,0.462755456365015,0.468170976026369));
#636=CARTESIAN_POINT('',(-19.9316788518459,0.431678851844911,0.436405577282455));
#637=CARTESIAN_POINT('',(-19.9005806366064,0.400580636610145,0.404664483069935));
#638=CARTESIAN_POINT('',(-19.8694761725459,0.369476172532082,0.372963665095389));
#639=CARTESIAN_POINT('',(-19.8383824421636,0.338382442215313,0.34132065012936));
#640=CARTESIAN_POINT('',(-19.8073268801056,0.307326879912767,0.309763467595056));
#641=CARTESIAN_POINT('',(-19.7763338208434,0.276333821562503,0.278316844862518));
#642=CARTESIAN_POINT('',(-19.7454231219673,0.245423119289261,0.247000818285719));
#643=CARTESIAN_POINT('',(-19.714604984276,0.214604984992103,0.2158255380836));
#644=CARTESIAN_POINT('',(-19.6838688686717,0.183868868479941,0.184780157920309));
#645=CARTESIAN_POINT('',(-19.6531947180627,0.153194718114257,0.153844304758713));
#646=CARTESIAN_POINT('',(-19.622558290179,0.122558290164472,0.122993526211585));
#647=CARTESIAN_POINT('',(-19.5919321394855,0.0919321394920421,0.092200292404757));
#648=CARTESIAN_POINT('',(-19.5612993759153,0.0612993759036979,0.0614478408138045));
#649=CARTESIAN_POINT('',(-19.5306446429358,0.0306446429760255,0.0307210532899839));
#650=CARTESIAN_POINT('',(-19.5102178978256,0.0102178977394524,0.0102782659592312));
#651=CARTESIAN_POINT('',(-19.5000000002244,-1.41956074865477E-15,6.03686756658062E-5));
#652=CARTESIAN_POINT('',(-19.5000000002244,-3.80892304964773E-15,6.03686756653621E-5));
#653=CARTESIAN_POINT('',(-19.5102178978255,-0.010217897739352,0.0102782659591463));
#654=CARTESIAN_POINT('',(-19.5306446429355,-0.03064464297572,0.0307210532897093));
#655=CARTESIAN_POINT('',(-19.5612993759148,-0.0612993759031267,0.0614478408132469));
#656=CARTESIAN_POINT('',(-19.5919321394846,-0.0919321394911721,0.0922002924039136));
#657=CARTESIAN_POINT('',(-19.6225582901779,-0.122558290163318,0.12299352621045));
#658=CARTESIAN_POINT('',(-19.6531947180613,-0.153194718112835,0.153844304757302));
#659=CARTESIAN_POINT('',(-19.68386886867,-0.183868868478295,0.184780157918676));
#660=CARTESIAN_POINT('',(-19.7146049842743,-0.214604984990311,0.21582553808181));
#661=CARTESIAN_POINT('',(-19.7454231219655,-0.245423119287421,0.247000818283873));
#662=CARTESIAN_POINT('',(-19.7763338208416,-0.276333821560709,0.278316844860723));
#663=CARTESIAN_POINT('',(-19.807326880104,-0.307326879911116,0.309763467593408));
#664=CARTESIAN_POINT('',(-19.8383824421622,-0.338382442213889,0.341320650127935));
#665=CARTESIAN_POINT('',(-19.8694761725448,-0.369476172530923,0.372963665094233));
#666=CARTESIAN_POINT('',(-19.9005806366056,-0.400580636609272,0.404664483069074));
#667=CARTESIAN_POINT('',(-19.9316788518453,-0.431678851844332,0.436405577281878));
#668=CARTESIAN_POINT('',(-19.9627554563645,-0.462755456364702,0.468170976026078));
#669=CARTESIAN_POINT('',(-19.9834826338694,-0.48348263386947,0.489388312088184));
#670=CARTESIAN_POINT('',(-19.9938416926382,-0.493841692638244,0.500000000000178));
#671=CARTESIAN_POINT('',(8.63693180369,-11.1369318036882,7.00000000000023));
#672=AXIS2_PLACEMENT_3D('',#673,#674,#675);
#673=CARTESIAN_POINT('',(11.13693180369,-11.1369318036882,7.00000000000011));
#674=DIRECTION('',(0.,0.,-1.));
#675=DIRECTION('',(-1.,0.,0.));
#676=CARTESIAN_POINT('',(8.63693180369,-11.1369318036882,1.13686837721616E-13));
#677=AXIS2_PLACEMENT_3D('',#678,#679,#680);
#678=CARTESIAN_POINT('',(11.13693180369,-11.1369318036882,0.));
#679=DIRECTION('',(0.,0.,-1.));
#680=DIRECTION('',(-1.,0.,0.));
#681=CARTESIAN_POINT('',(-13.63693180369,-11.1369318036882,7.00000000000023));
#682=AXIS2_PLACEMENT_3D('',#683,#684,#685);
#683=CARTESIAN_POINT('',(-11.13693180369,-11.1369318036882,7.00000000000011));
#684=DIRECTION('',(0.,0.,-1.));
#685=DIRECTION('',(-1.,0.,0.));
#686=CARTESIAN_POINT('',(-13.63693180369,-11.1369318036882,1.13686837721616E-13));
#687=AXIS2_PLACEMENT_3D('',#688,#689,#690);
#688=CARTESIAN_POINT('',(-11.13693180369,-11.1369318036882,0.));
#689=DIRECTION('',(0.,0.,-1.));
#690=DIRECTION('',(-1.,0.,0.));
#691=CARTESIAN_POINT('',(13.25,3.04458369417657E-14,7.00000000000023));
#692=AXIS2_PLACEMENT_3D('',#693,#694,#695);
#693=CARTESIAN_POINT('',(15.75,3.03437830418367E-14,7.00000000000011));
#694=DIRECTION('',(0.,0.,-1.));
#695=DIRECTION('',(-1.,0.,0.));
#696=CARTESIAN_POINT('',(13.25,3.04253037160421E-14,1.13686837721616E-13));
#697=AXIS2_PLACEMENT_3D('',#698,#699,#700);
#698=CARTESIAN_POINT('',(15.75,3.01980662698043E-14,0.));
#699=DIRECTION('',(0.,0.,-1.));
#700=DIRECTION('',(-1.,0.,0.));
#701=CARTESIAN_POINT('',(8.63693180369,11.1369318036881,7.00000000000023));
#702=AXIS2_PLACEMENT_3D('',#703,#704,#705);
#703=CARTESIAN_POINT('',(11.13693180369,11.1369318036881,7.00000000000011));
#704=DIRECTION('',(0.,0.,-1.));
#705=DIRECTION('',(-1.,0.,0.));
#706=CARTESIAN_POINT('',(8.63693180369,11.1369318036881,1.13686837721616E-13));
#707=AXIS2_PLACEMENT_3D('',#708,#709,#710);
#708=CARTESIAN_POINT('',(11.13693180369,11.1369318036881,0.));
#709=DIRECTION('',(0.,0.,-1.));
#710=DIRECTION('',(-1.,0.,0.));
#711=CARTESIAN_POINT('',(-2.5,15.75,7.00000000000023));
#712=AXIS2_PLACEMENT_3D('',#713,#714,#715);
#713=CARTESIAN_POINT('',(0.,15.75,7.00000000000011));
#714=DIRECTION('',(0.,0.,-1.));
#715=DIRECTION('',(-1.,0.,0.));
#716=CARTESIAN_POINT('',(-2.5,15.75,1.13686837721616E-13));
#717=AXIS2_PLACEMENT_3D('',#718,#719,#720);
#718=CARTESIAN_POINT('',(0.,15.75,0.));
#719=DIRECTION('',(0.,0.,-1.));
#720=DIRECTION('',(-1.,0.,0.));
#721=CARTESIAN_POINT('',(-13.63693180369,11.1369318036881,7.00000000000023));
#722=AXIS2_PLACEMENT_3D('',#723,#724,#725);
#723=CARTESIAN_POINT('',(-11.13693180369,11.1369318036881,7.00000000000011));
#724=DIRECTION('',(0.,0.,-1.));
#725=DIRECTION('',(-1.,0.,0.));
#726=CARTESIAN_POINT('',(-13.63693180369,11.1369318036881,1.13686837721616E-13));
#727=AXIS2_PLACEMENT_3D('',#728,#729,#730);
#728=CARTESIAN_POINT('',(-11.13693180369,11.1369318036881,0.));
#729=DIRECTION('',(0.,0.,-1.));
#730=DIRECTION('',(-1.,0.,0.));
#731=CARTESIAN_POINT('',(10.4999999999995,2.92795483194317E-15,5.6843418860808E-13));
#732=AXIS2_PLACEMENT_3D('',#733,#734,#735);
#733=CARTESIAN_POINT('',(0.,0.,0.));
#734=DIRECTION('',(0.,0.,-1.));
#735=DIRECTION('',(-1.,-1.22464679914735E-16,0.));
#736=CARTESIAN_POINT('',(-10.0000000001494,-4.61413786333707E-16,0.500000000448949));
#737=CARTESIAN_POINT('',(10.000000000299,1.94855941332012E-15,0.500000000448949));
#738=AXIS2_PLACEMENT_3D('',#739,#740,#741);
#739=CARTESIAN_POINT('',(0.,-1.38777877573889E-17,0.500000000448836));
#740=DIRECTION('',(0.,0.,-1.));
#741=DIRECTION('',(-1.,2.44929359829471E-16,0.));
#742=AXIS2_PLACEMENT_3D('',#743,#744,#745);
#743=CARTESIAN_POINT('',(0.,-1.38777877573889E-17,0.500000000448836));
#744=DIRECTION('',(0.,0.,-1.));
#745=DIRECTION('',(1.,-1.22464679914735E-16,0.));
#746=CARTESIAN_POINT('',(-2.5,-15.75,7.00000000000023));
#747=AXIS2_PLACEMENT_3D('',#748,#749,#750);
#748=CARTESIAN_POINT('',(0.,-15.75,7.00000000000011));
#749=DIRECTION('',(0.,0.,-1.));
#750=DIRECTION('',(-1.,0.,0.));
#751=CARTESIAN_POINT('',(-2.5,-15.75,1.13686837721616E-13));
#752=AXIS2_PLACEMENT_3D('',#753,#754,#755);
#753=CARTESIAN_POINT('',(0.,-15.75,0.));
#754=DIRECTION('',(0.,0.,-1.));
#755=DIRECTION('',(-1.,0.,0.));
#756=CARTESIAN_POINT('',(-18.25,-1.16212073506719E-14,5.00000000000023));
#757=AXIS2_PLACEMENT_3D('',#758,#759,#760);
#758=CARTESIAN_POINT('',(-15.75,-1.17232612506009E-14,5.00000000000011));
#759=DIRECTION('',(0.,0.,-1.));
#760=DIRECTION('',(-1.,0.,0.));
#761=CARTESIAN_POINT('',(-18.25,-1.15341877208849E-14,1.13686837721616E-13));
#762=AXIS2_PLACEMENT_3D('',#763,#764,#765);
#763=CARTESIAN_POINT('',(-15.75,-1.15463194561016E-14,0.));
#764=DIRECTION('',(0.,0.,-1.));
#765=DIRECTION('',(-1.,0.,0.));
#766=CARTESIAN_POINT('',(-10.,3.63090131076581E-16,6.00000000000023));
#767=AXIS2_PLACEMENT_3D('',#768,#769,#770);
#768=CARTESIAN_POINT('',(0.,0.,6.00000000000011));
#769=DIRECTION('',(0.,0.,-1.));
#770=DIRECTION('',(-1.,0.,0.));
#771=CARTESIAN_POINT('',(-19.4999999999999,-3.95196462257816E-14,3.00006045709756));
#772=VECTOR('',#773,1.);
#773=DIRECTION('',(-4.02640871760075E-14,1.33952596197091E-14,-1.));
ENDSEC;
END-ISO-10303-21;
